<svg width="563" height="382" viewBox="0 0 563 382" fill="none" xmlns="http://www.w3.org/2000/svg">
<path d="M48.9221 342.237C61.2698 334.146 64.4063 318.647 64.2776 304.604C64.2776 302.266 64.5744 299.81 63.496 297.731C62.4175 295.651 59.8352 294.195 57.6882 295.126C55.9172 295.898 55.1059 297.899 54.0769 299.543C52.705 301.744 50.7397 303.512 48.4076 304.643C46.8839 305.376 45.0139 305.802 43.5496 304.96C41.5708 303.801 41.363 300.999 41.4323 298.691C41.5708 294.36 41.7028 290.032 41.8281 285.708C42.0309 283.383 41.8503 281.041 41.2938 278.775C40.9987 277.653 40.4397 276.618 39.6634 275.757C38.8872 274.895 37.9162 274.232 36.8316 273.823C34.6054 273.15 31.8153 274.358 31.281 276.616C31.1703 277.576 31.124 278.542 31.1425 279.508C31.1445 279.993 31.0026 280.467 30.7348 280.871C30.4671 281.275 30.0855 281.59 29.6386 281.776C29.1523 281.821 28.6626 281.741 28.2159 281.543C27.7692 281.345 27.3803 281.037 27.086 280.647C24.8333 278.125 23.0085 275.252 21.6838 272.14C20.3612 269.032 18.674 266.093 16.6577 263.385C14.5206 260.771 11.5227 258.671 8.1587 258.433C4.79473 258.196 1.16362 260.137 0.243478 263.385C-0.676667 266.633 1.16362 270.011 3.21169 272.704C6.24273 276.721 9.83855 280.276 13.8873 283.262C14.6756 283.716 15.2992 284.41 15.6683 285.242C16.1333 286.807 14.6096 288.302 13.0562 288.778C11.2852 289.313 9.38556 289.085 7.55516 289.253C5.72477 289.422 3.70638 290.174 2.97422 291.868C1.98482 294.225 3.90426 296.76 5.8336 298.434C9.72519 301.802 14.1619 304.481 18.9531 306.357C20.7198 306.885 22.3759 307.731 23.8407 308.852C25.2061 310.08 25.9976 312.19 25.1171 313.804C24.2365 315.418 22.0598 315.894 20.2492 315.517C18.5033 314.997 16.8053 314.328 15.1736 313.517C11.9679 312.239 7.79262 312.358 5.6555 315.072C4.99558 315.998 4.56226 317.067 4.39041 318.192C4.21857 319.317 4.31299 320.467 4.6661 321.549C5.4051 323.7 6.56935 325.681 8.08944 327.372C13.0786 333.588 19.6225 338.372 27.0563 341.237C34.4867 343.99 41.4224 344.852 48.932 342.336" fill="#EE4248"/>
<path d="M3.70616 260.325L3.93372 260.553L4.61641 261.177C5.21994 261.731 6.10051 262.543 7.21853 263.623C10.3736 266.665 13.2972 269.939 15.9649 273.417C17.6567 275.606 19.4179 278.092 21.2582 280.786C23.0984 283.479 25.0278 286.391 26.9571 289.511C28.9919 292.759 30.845 296.119 32.5077 299.573C33.3783 301.365 34.1402 303.247 34.9119 305.158C35.6836 307.07 36.4752 309.011 37.2667 310.982C40.3 318.341 42.913 325.866 45.0929 333.522C46.8471 339.783 48.0033 346.196 48.5459 352.676C48.9006 357.044 48.8675 361.435 48.447 365.798C48.2886 367.333 48.1402 368.531 48.0116 369.343C47.9522 369.73 47.9127 370.037 47.8731 370.264C47.8664 370.37 47.8664 370.476 47.8731 370.581C47.9064 370.481 47.9329 370.378 47.9522 370.274C47.9522 370.046 48.0512 369.739 48.1204 369.353C48.2788 368.551 48.4568 367.373 48.6448 365.818C49.1298 361.447 49.2093 357.041 48.8823 352.656C48.3853 346.15 47.2553 339.709 45.5084 333.423C43.3438 325.742 40.7373 318.193 37.702 310.813C36.8973 308.833 36.1124 306.895 35.3473 305C34.5656 303.089 33.7939 301.197 32.9232 299.385C31.2441 295.92 29.3746 292.551 27.3232 289.293C25.3444 286.173 23.425 283.281 21.5847 280.588C19.7444 277.894 17.9536 275.418 16.232 273.229C13.5246 269.758 10.5471 266.506 7.32737 263.504C6.18955 262.444 5.27931 261.642 4.65598 261.117L3.95351 260.513C3.7952 260.384 3.71605 260.315 3.70616 260.325Z" fill="#263238"/>
<path d="M32.775 299.365C32.8926 299.044 32.9755 298.712 33.0224 298.374C33.1609 297.731 33.339 296.81 33.5269 295.651C33.9128 293.343 34.3481 290.145 34.8032 286.619C35.2583 283.093 35.7332 279.904 36.1586 277.607C36.3664 276.468 36.5444 275.537 36.6731 274.893C36.7624 274.57 36.8155 274.238 36.8314 273.903C36.6816 274.218 36.5719 274.551 36.5049 274.893C36.3268 275.517 36.0992 276.438 35.8519 277.577C35.3572 279.865 34.8626 283.054 34.3778 286.589C33.893 290.125 33.5269 293.225 33.2301 295.641C33.0817 296.721 32.9531 297.622 32.8641 298.374C32.7962 298.7 32.7663 299.032 32.775 299.365Z" fill="#263238"/>
<path d="M2.68713 293.066C3.08004 293.16 3.48086 293.216 3.88431 293.234C4.65604 293.324 5.78396 293.442 7.15923 293.64C9.91967 293.997 13.719 294.631 17.8745 295.502C22.03 296.374 25.7897 297.354 28.4314 298.117C29.777 298.493 30.8554 298.83 31.5975 299.058C31.9784 299.2 32.3729 299.303 32.7749 299.365C32.4135 299.184 32.04 299.028 31.6568 298.899C30.9247 298.622 29.8561 298.246 28.5204 297.83C25.859 296.978 22.1289 295.968 17.9635 295.086C14.4071 294.321 10.8142 293.736 7.19881 293.333C5.80375 293.175 4.67583 293.106 3.9041 293.076C3.49981 293.032 3.09209 293.028 2.68713 293.066V293.066Z" fill="#263238"/>
<path d="M45.1228 332.859C45.2106 332.75 45.2837 332.63 45.3405 332.502L45.8846 331.432C46.3496 330.502 46.9927 329.145 47.7643 327.471C49.3077 324.084 51.2864 319.34 53.3937 314.081C55.501 308.823 57.45 304.059 58.9143 300.652L60.6654 296.612L61.1403 295.512C61.2392 295.255 61.2887 295.116 61.2689 295.116C61.1874 295.227 61.1178 295.347 61.0611 295.473L60.517 296.542C60.0421 297.473 59.4089 298.83 58.6372 300.504C57.0939 303.891 55.1152 308.634 52.998 313.893C50.8808 319.152 48.9515 323.916 47.4774 327.323C46.7651 328.986 46.1715 330.353 45.7263 331.363L45.2613 332.462C45.1982 332.588 45.1517 332.721 45.1228 332.859V332.859Z" fill="#263238"/>
<path d="M5.27954 319.112C5.27954 319.112 5.40816 319.192 5.66541 319.291L6.82301 319.697L11.0972 321.182C14.6987 322.43 19.6556 324.213 25.127 326.193C30.5984 328.174 35.575 329.907 39.2062 331.086C41.0267 331.68 42.491 332.136 43.52 332.433L44.6973 332.769C44.9744 332.849 45.1228 332.878 45.1228 332.859C44.997 332.789 44.8644 332.733 44.727 332.69L43.5694 332.274L39.3051 330.799C35.7037 329.551 30.7468 327.768 25.2754 325.787C19.804 323.807 14.8174 322.064 11.1962 320.885C9.37567 320.301 7.90146 319.835 6.88238 319.538L5.69509 319.202C5.55988 319.158 5.42067 319.128 5.27954 319.112V319.112Z" fill="#263238"/>
<path d="M450.432 237.735L390.741 237.458C389.033 237.454 387.342 237.112 385.766 236.452C384.19 235.792 382.759 234.828 381.557 233.613C380.354 232.398 379.403 230.958 378.758 229.374C378.114 227.79 377.788 226.095 377.8 224.385L378.433 75.0096C378.442 73.3024 378.787 71.6138 379.448 70.0402C380.11 68.4665 381.074 67.0388 382.287 65.8385C383.5 64.6383 384.937 63.6891 386.517 63.0451C388.097 62.4011 389.787 62.075 391.493 62.0854L451.184 62.3528C454.626 62.3659 457.924 63.7455 460.352 66.1888C462.78 68.6321 464.14 71.9397 464.135 75.3859L463.502 224.771C463.496 226.482 463.154 228.175 462.494 229.754C461.834 231.332 460.869 232.764 459.655 233.968C458.441 235.173 457.001 236.125 455.418 236.772C453.836 237.418 452.141 237.745 450.432 237.735V237.735Z" fill="#455A64"/>
<path d="M451.104 67.5522H439.528C439.152 67.5573 438.78 67.6368 438.435 67.786C438.089 67.9353 437.776 68.1514 437.514 68.4219C437.252 68.6924 437.046 69.012 436.908 69.3624C436.77 69.7128 436.702 70.0871 436.708 70.4638V72.5634C436.716 73.3236 436.425 74.0564 435.897 74.6032C435.37 75.15 434.648 75.4667 433.889 75.4849L411.32 75.376C410.941 75.3671 410.568 75.2828 410.222 75.1281C409.876 74.9734 409.564 74.7514 409.304 74.4749C409.044 74.1985 408.842 73.8731 408.709 73.5177C408.577 73.1623 408.516 72.7841 408.53 72.4049V70.2855C408.543 69.9067 408.482 69.529 408.348 69.1742C408.215 68.8194 408.013 68.4946 407.753 68.2184C407.494 67.9422 407.183 67.7201 406.837 67.565C406.492 67.4098 406.119 67.3247 405.74 67.3145H401.664H391.532C390.338 67.3079 389.155 67.5369 388.049 67.9883C386.943 68.4397 385.937 69.1046 385.088 69.9451C384.239 70.7857 383.564 71.7854 383.101 72.8871C382.638 73.9889 382.397 75.1711 382.39 76.3663L381.767 222.176C381.762 224.591 382.714 226.909 384.415 228.621C386.117 230.333 388.427 231.3 390.84 231.307L450.412 231.585C452.823 231.595 455.141 230.649 456.856 228.952C458.572 227.255 459.545 224.947 459.564 222.533L460.177 76.7228C460.186 75.5235 459.958 74.3341 459.507 73.2232C459.055 72.1122 458.389 71.1016 457.545 70.2494C456.702 69.3971 455.699 68.7201 454.594 68.2572C453.488 67.7944 452.302 67.5547 451.104 67.5522V67.5522Z" fill="white"/>
<path d="M450.125 166.766H391.176V170.718H450.125V166.766Z" fill="#455A64"/>
<path d="M448.027 182.304C448.027 182.443 435.442 182.562 419.928 182.562C404.415 182.562 391.819 182.443 391.819 182.304C391.819 182.166 404.405 182.047 419.928 182.047C435.452 182.047 448.027 182.166 448.027 182.304Z" fill="#455A64"/>
<path d="M448.027 88.706C448.027 88.8544 435.442 88.9632 419.928 88.9632C404.415 88.9632 391.819 88.8544 391.819 88.706C391.819 88.5576 404.405 88.4487 419.928 88.4487C435.452 88.4487 448.027 88.5378 448.027 88.706Z" fill="#455A64"/>
<path d="M448.027 189.494C448.027 189.633 435.442 189.752 419.928 189.752C404.415 189.752 391.819 189.633 391.819 189.494C391.819 189.356 404.405 189.237 419.928 189.237C435.452 189.237 448.027 189.346 448.027 189.494Z" fill="#455A64"/>
<path d="M448.027 196.655C448.027 196.793 435.442 196.912 419.928 196.912C404.415 196.912 391.819 196.793 391.819 196.655C391.819 196.516 404.405 196.397 419.928 196.397C435.452 196.397 448.027 196.536 448.027 196.655Z" fill="#455A64"/>
<path d="M448.027 203.864C448.027 204.003 435.442 204.122 419.928 204.122C404.415 204.122 391.819 204.003 391.819 203.864C391.819 203.726 404.405 203.607 419.928 203.607C435.452 203.607 448.027 203.716 448.027 203.864Z" fill="#455A64"/>
<path d="M448.027 211.045C448.027 211.193 435.442 211.302 419.928 211.302C404.415 211.302 391.819 211.193 391.819 211.045C391.819 210.896 404.405 210.787 419.928 210.787C435.452 210.787 448.027 210.906 448.027 211.045Z" fill="#455A64"/>
<path d="M448.829 219.195C448.829 219.334 436.244 219.452 420.73 219.452C405.216 219.452 392.621 219.334 392.621 219.195C392.621 219.057 405.206 218.938 420.73 218.938C436.254 218.938 448.829 219.047 448.829 219.195Z" fill="#455A64"/>
<path d="M450.916 96.8766H391.819V154.109H450.916V96.8766Z" fill="#E0E0E0"/>
<path d="M396.4 149.207L412.755 119.754L426.122 138.58L434.245 128.578L446.336 149.207H396.4Z" fill="#EE4248"/>
<path d="M431.821 114.03C431.821 114.872 431.571 115.695 431.104 116.395C430.636 117.096 429.972 117.642 429.194 117.964C428.417 118.286 427.562 118.371 426.736 118.206C425.911 118.042 425.153 117.636 424.558 117.041C423.963 116.445 423.558 115.686 423.394 114.86C423.23 114.034 423.314 113.178 423.636 112.4C423.958 111.622 424.503 110.957 425.203 110.489C425.902 110.021 426.725 109.771 427.566 109.771C428.694 109.774 429.774 110.223 430.572 111.021C431.369 111.819 431.818 112.901 431.821 114.03Z" fill="#EE4248"/>
<path d="M446.336 149.365C446.336 149.365 446.336 149.286 446.336 149.128C446.336 148.969 446.336 148.742 446.336 148.464C446.336 147.85 446.336 146.999 446.336 145.889C446.336 143.621 446.336 140.333 446.266 136.164C446.266 127.805 446.197 115.901 446.148 101.611L446.385 101.848H396.46C396.391 101.908 396.984 101.313 396.737 101.571V114.446C396.737 118.655 396.737 122.774 396.737 126.775C396.737 134.797 396.737 142.374 396.737 149.346L396.489 149.098L432.593 149.227L442.784 149.286H445.485H446.177H446.425H446.207H445.534H442.883L432.751 149.346L396.489 149.474H396.242V149.227C396.242 142.294 396.242 134.679 396.242 126.657C396.242 122.695 396.242 118.536 396.242 114.327V101.452C395.985 101.7 396.579 101.096 396.529 101.165H446.454H446.553V101.581C446.494 115.941 446.454 127.895 446.425 136.293C446.425 140.432 446.425 143.701 446.365 145.959C446.365 147.048 446.365 147.89 446.365 148.484C446.365 148.751 446.365 148.959 446.365 149.128C446.367 149.208 446.357 149.288 446.336 149.365V149.365Z" fill="#455A64"/>
<path d="M140.274 11.4386V143.374C140.274 149.691 145.39 154.812 151.701 154.812H350.809C357.12 154.812 362.236 149.691 362.236 143.374V11.4386C362.236 5.12123 357.12 0 350.809 0H151.701C145.39 0 140.274 5.12123 140.274 11.4386Z" fill="#455A64"/>
<path d="M155.451 4.88246V149.93H340.816V4.88246H155.451Z" fill="white"/>
<path d="M351.076 71.4641C352.25 71.4641 353.397 71.8126 354.373 72.4655C355.35 73.1184 356.11 74.0464 356.56 75.1322C357.009 76.218 357.127 77.4128 356.898 78.5654C356.668 79.7181 356.103 80.7769 355.273 81.6079C354.443 82.4389 353.385 83.0049 352.234 83.2341C351.082 83.4634 349.889 83.3457 348.804 82.896C347.719 82.4463 346.792 81.6846 346.14 80.7075C345.488 79.7303 345.139 78.5814 345.139 77.4062C345.139 75.8302 345.765 74.3188 346.878 73.2045C347.991 72.0901 349.501 71.4641 351.076 71.4641Z" fill="#263238"/>
<path d="M146.665 55.3015V99.5109C146.665 100.178 147.206 100.719 147.872 100.719H147.912C148.578 100.719 149.119 100.178 149.119 99.5109V55.3015C149.119 54.6342 148.578 54.0933 147.912 54.0933H147.872C147.206 54.0933 146.665 54.6342 146.665 55.3015Z" fill="#263238"/>
<path d="M298.954 15.7764H240.005V19.7279H298.954V15.7764Z" fill="#455A64"/>
<path d="M222.167 83.6454H163.218V87.597H222.167V83.6454Z" fill="#455A64"/>
<path d="M313.31 30.4729C313.31 30.6213 296.906 30.7302 276.702 30.7302C256.499 30.7302 240.045 30.6213 240.045 30.4729C240.045 30.3245 256.449 30.2157 276.702 30.2157C296.955 30.2157 313.31 30.3344 313.31 30.4729Z" fill="#455A64"/>
<path d="M313.31 39.099C313.31 39.2375 296.906 39.3562 276.702 39.3562C256.499 39.3562 240.045 39.2375 240.045 39.099C240.045 38.9605 256.449 38.8417 276.702 38.8417C296.955 38.8417 313.31 38.9506 313.31 39.099Z" fill="#455A64"/>
<path d="M313.31 47.7151C313.31 47.8536 296.906 47.9723 276.702 47.9723C256.499 47.9723 240.045 47.8536 240.045 47.7151C240.045 47.5765 256.449 47.4578 276.702 47.4578C296.955 47.4578 313.31 47.5765 313.31 47.7151Z" fill="#455A64"/>
<path d="M313.31 56.3311C313.31 56.4795 296.906 56.5884 276.702 56.5884C256.499 56.5884 240.045 56.4795 240.045 56.3311C240.045 56.1827 256.449 56.0739 276.702 56.0739C296.955 56.0739 313.31 56.1926 313.31 56.3311Z" fill="#455A64"/>
<path d="M313.31 64.9373C313.31 65.0759 296.906 65.1946 276.702 65.1946C256.499 65.1946 240.045 65.0759 240.045 64.9373C240.045 64.7988 256.449 64.6801 276.702 64.6801C296.955 64.6801 313.31 64.8087 313.31 64.9373Z" fill="#455A64"/>
<path d="M297.233 73.5733C297.233 73.7118 284.42 73.8305 268.619 73.8305C252.818 73.8305 240.005 73.7118 240.005 73.5733C240.005 73.4348 252.808 73.316 268.619 73.316C284.43 73.316 297.233 73.4348 297.233 73.5733Z" fill="#455A64"/>
<path d="M260.031 99.1839C260.031 99.3224 238.502 99.4411 211.946 99.4411C185.39 99.4411 163.861 99.3224 163.861 99.1839C163.861 99.0454 185.39 98.9266 211.946 98.9266C238.502 98.9266 260.031 99.0355 260.031 99.1839Z" fill="#455A64"/>
<path d="M260.031 106.364C260.031 106.512 238.502 106.621 211.946 106.621C185.39 106.621 163.861 106.512 163.861 106.364C163.861 106.216 185.39 106.107 211.946 106.107C238.502 106.107 260.031 106.225 260.031 106.364Z" fill="#455A64"/>
<path d="M260.031 113.554C260.031 113.692 238.502 113.811 211.946 113.811C185.39 113.811 163.861 113.692 163.861 113.554C163.861 113.415 185.39 113.297 211.946 113.297C238.502 113.297 260.031 113.406 260.031 113.554Z" fill="#455A64"/>
<path d="M260.031 120.734C260.031 120.882 238.502 120.991 211.946 120.991C185.39 120.991 163.861 120.882 163.861 120.734C163.861 120.586 185.39 120.477 211.946 120.477C238.502 120.477 260.031 120.595 260.031 120.734Z" fill="#455A64"/>
<path d="M260.031 127.924C260.031 128.062 238.502 128.181 211.946 128.181C185.39 128.181 163.861 128.062 163.861 127.924C163.861 127.785 185.39 127.667 211.946 127.667C238.502 127.667 260.031 127.785 260.031 127.924Z" fill="#455A64"/>
<path d="M222.958 13.7461H163.861V70.9788H222.958V13.7461Z" fill="#EE4248"/>
<path d="M168.442 66.0864L184.797 36.6332L198.164 55.45L206.287 45.4573L218.377 66.0864H168.442Z" fill="#E0E0E0"/>
<path d="M203.862 30.8991C203.864 31.7418 203.616 32.5661 203.15 33.2677C202.684 33.9693 202.02 34.5167 201.243 34.8405C200.466 35.1643 199.61 35.2501 198.784 35.0869C197.958 34.9237 197.199 34.5189 196.603 33.9237C196.007 33.3286 195.601 32.5698 195.436 31.7434C195.271 30.9171 195.355 30.0603 195.677 29.2816C195.998 28.5029 196.544 27.8372 197.243 27.3688C197.943 26.9005 198.766 26.6505 199.608 26.6505C200.734 26.6504 201.815 27.0978 202.613 27.8942C203.41 28.6907 203.859 29.7714 203.862 30.8991V30.8991Z" fill="#E0E0E0"/>
<path d="M218.377 66.2449C218.377 66.2449 218.377 66.1558 218.377 66.0072C218.377 65.8587 218.377 65.621 218.377 65.3437C218.377 64.7297 218.377 63.8681 218.377 62.7688C218.377 60.4909 218.377 57.2129 218.318 53.0435C218.318 44.6849 218.248 32.7808 218.199 18.49L218.436 18.7276H168.511C168.442 18.7871 169.036 18.2028 168.788 18.4603V24.9273C168.788 27.0664 168.788 29.1957 168.788 31.2953V43.6252C168.788 51.6471 168.788 59.2233 168.788 66.1954L168.541 65.9478L204.644 66.0666L214.825 66.136H217.526H218.229H218.476H218.258H217.586H214.934L204.803 66.2053L168.541 66.3241H168.294V66.0766C168.294 59.1441 168.294 51.5282 168.294 43.5063C168.294 39.4987 168.294 35.3887 168.294 31.1764V18.3018C168.036 18.5494 168.63 17.9453 168.58 18.0047H218.506H218.753V18.2523C218.704 32.6025 218.664 44.566 218.634 52.9642C218.634 57.1039 218.585 60.3721 218.575 62.6301C218.575 63.7096 218.575 64.6108 218.575 65.1555C218.575 65.4229 218.575 65.6309 218.575 65.7993C218.568 65.9676 218.497 66.1269 218.377 66.2449Z" fill="#455A64"/>
<path d="M315.121 91.2316H273.299V131.737H315.121V91.2316Z" fill="#EE4248"/>
<path d="M276.544 128.271L288.11 107.434L297.579 120.754L303.327 113.673L311.876 128.271H276.544Z" fill="#E0E0E0"/>
<path d="M301.605 103.373C301.605 103.961 301.431 104.535 301.105 105.024C300.779 105.513 300.315 105.893 299.773 106.118C299.231 106.343 298.634 106.402 298.058 106.287C297.483 106.173 296.954 105.89 296.539 105.474C296.123 105.059 295.841 104.529 295.726 103.953C295.612 103.377 295.671 102.779 295.895 102.236C296.12 101.693 296.5 101.229 296.988 100.903C297.476 100.576 298.05 100.402 298.637 100.402C299.424 100.402 300.179 100.715 300.736 101.272C301.293 101.83 301.605 102.585 301.605 103.373V103.373Z" fill="#E0E0E0"/>
<path d="M311.876 128.38C311.876 128.38 311.876 128.32 311.876 128.221C311.876 128.122 311.876 127.944 311.876 127.746C311.876 127.31 311.876 126.756 311.876 125.924C311.876 124.319 311.876 121.962 311.876 118.991C311.876 113.049 311.826 104.651 311.787 94.5394L311.955 94.7077H276.623C276.574 94.7077 276.999 94.3314 276.821 94.5195V103.611C276.821 106.582 276.821 109.49 276.821 112.336C276.821 118.011 276.821 123.369 276.821 128.301L276.653 128.132L302.1 128.32H309.303H311.223H311.886C311.886 128.32 311.836 128.32 311.737 128.32H311.262H309.382L302.209 128.37L276.554 128.459H276.376V128.281C276.376 123.329 276.376 117.991 276.376 112.316V94.6483C276.198 94.8167 276.623 94.3908 276.584 94.4403H311.915H312.093V94.6087C312.093 104.77 312.024 113.227 312.004 119.169C312.004 122.141 312.004 124.418 311.955 126.013C311.955 126.785 311.955 127.38 311.955 127.805C311.955 127.994 311.955 128.142 311.955 128.261C311.955 128.38 311.886 128.39 311.876 128.38Z" fill="#455A64"/>
<path d="M345.228 170.46H63.7928C55.8313 170.46 49.3773 176.92 49.3773 184.89V361.401C49.3773 369.37 55.8313 375.83 63.7928 375.83H345.228C353.19 375.83 359.644 369.37 359.644 361.401V184.89C359.644 176.92 353.19 170.46 345.228 170.46Z" fill="#263238"/>
<path d="M36.4062 360.648H372.556V360.995C372.556 365.67 370.7 370.154 367.398 373.46C364.095 376.766 359.615 378.623 354.944 378.623H54.0176C49.3467 378.623 44.8672 376.766 41.5644 373.46C38.2617 370.154 36.4062 365.67 36.4062 360.995V360.648V360.648Z" fill="#263238"/>
<path d="M350.453 178.621H57.708V352.052H350.453V178.621Z" fill="#E0E0E0"/>
<path d="M173.923 360.648L178.099 367.293H236.79L240.668 360.648H173.923Z" fill="#455A64"/>
<path d="M336.997 190.178H67.4734V351.992H336.997V190.178Z" fill="#FAFAFA"/>
<path d="M78.9799 198.15C78.9819 198.599 78.8507 199.039 78.6029 199.413C78.3551 199.787 78.002 200.08 77.5882 200.253C77.1744 200.426 76.7185 200.472 76.2784 200.386C75.8383 200.299 75.4337 200.084 75.1158 199.767C74.798 199.451 74.5812 199.047 74.493 198.606C74.4048 198.166 74.4491 197.71 74.6202 197.295C74.7914 196.88 75.0818 196.525 75.4546 196.275C75.8274 196.026 76.2658 195.892 76.7143 195.892C77.3135 195.892 77.8882 196.13 78.3128 196.553C78.7374 196.976 78.9773 197.551 78.9799 198.15V198.15Z" fill="#455A64"/>
<path d="M88.2012 198.15C88.2031 198.6 88.0717 199.04 87.8235 199.414C87.5753 199.789 87.2215 200.081 86.8071 200.254C86.3928 200.427 85.9364 200.472 85.496 200.385C85.0556 200.298 84.651 200.082 84.3336 199.764C84.0161 199.446 83.8001 199.041 83.713 198.6C83.6259 198.159 83.6716 197.703 83.8443 197.288C84.017 196.873 84.309 196.519 84.683 196.27C85.0571 196.022 85.4965 195.89 85.9454 195.892C86.5437 195.892 87.1174 196.13 87.5405 196.554C87.9635 196.977 88.2012 197.552 88.2012 198.15V198.15Z" fill="#455A64"/>
<path d="M97.4323 198.15C97.4343 198.599 97.3031 199.039 97.0553 199.413C96.8076 199.787 96.4544 200.08 96.0406 200.253C95.6268 200.426 95.1709 200.472 94.7308 200.386C94.2907 200.299 93.8861 200.084 93.5682 199.767C93.2504 199.451 93.0336 199.047 92.9454 198.606C92.8572 198.166 92.9015 197.71 93.0726 197.295C93.2438 196.88 93.5342 196.525 93.907 196.275C94.2798 196.026 94.7182 195.892 95.1667 195.892C95.4638 195.891 95.7581 195.949 96.033 196.061C96.3078 196.174 96.5576 196.34 96.7681 196.55C96.9786 196.76 97.1457 197.009 97.2597 197.284C97.3736 197.559 97.4323 197.853 97.4323 198.15V198.15Z" fill="#455A64"/>
<path d="M336.997 208.054C336.997 208.202 276.643 208.311 202.24 208.311C127.837 208.311 67.4734 208.202 67.4734 208.054C67.4734 207.905 127.827 207.796 202.24 207.796C276.653 207.796 336.997 207.915 336.997 208.054Z" fill="#455A64"/>
<path d="M359.644 360.787H49.3773V361.777H359.644V360.787Z" fill="#455A64"/>
<path d="M148.515 286.678H89.5668V290.63H148.515V286.678Z" fill="#455A64"/>
<path d="M224.66 231.872H165.711V235.824H224.66V231.872Z" fill="#455A64"/>
<path d="M312.341 246.579C312.341 246.717 279.512 246.836 239.026 246.836C198.54 246.836 165.711 246.717 165.711 246.579C165.711 246.44 198.53 246.311 239.026 246.311C279.522 246.311 312.341 246.43 312.341 246.579Z" fill="#455A64"/>
<path d="M312.341 255.195C312.341 255.333 279.512 255.452 239.026 255.452C198.54 255.452 165.711 255.333 165.711 255.195C165.711 255.056 198.53 254.937 239.026 254.937C279.522 254.937 312.341 255.086 312.341 255.195Z" fill="#455A64"/>
<path d="M312.341 263.811C312.341 263.959 279.512 264.068 239.026 264.068C198.54 264.068 165.711 263.959 165.711 263.811C165.711 263.662 198.53 263.553 239.026 263.553C279.522 263.553 312.341 263.672 312.341 263.811Z" fill="#455A64"/>
<path d="M312.341 272.437C312.341 272.575 279.512 272.694 239.026 272.694C198.54 272.694 165.711 272.575 165.711 272.437C165.711 272.298 198.53 272.17 239.026 272.17C279.522 272.17 312.341 272.288 312.341 272.437Z" fill="#455A64"/>
<path d="M312.341 281.053C312.341 281.191 279.512 281.31 239.026 281.31C198.54 281.31 165.711 281.191 165.711 281.053C165.711 280.914 198.53 280.796 239.026 280.796C279.522 280.796 312.341 280.904 312.341 281.053Z" fill="#455A64"/>
<path d="M222.948 289.669C222.948 289.807 210.135 289.926 194.335 289.926C178.534 289.926 165.711 289.807 165.711 289.669C165.711 289.53 178.573 289.412 194.335 289.412C210.096 289.412 222.948 289.53 222.948 289.669Z" fill="#455A64"/>
<path d="M311.262 306.396C311.262 306.544 289.683 306.653 263.078 306.653C236.473 306.653 214.894 306.544 214.894 306.396C214.894 306.248 236.463 306.139 263.078 306.139C289.693 306.139 311.262 306.257 311.262 306.396Z" fill="#455A64"/>
<path d="M311.262 315.547C311.262 315.685 289.683 315.804 263.078 315.804C236.473 315.804 214.894 315.685 214.894 315.547C214.894 315.408 236.463 315.29 263.078 315.29C289.693 315.29 311.262 315.408 311.262 315.547Z" fill="#455A64"/>
<path d="M311.262 324.698C311.262 324.836 289.683 324.955 263.078 324.955C236.473 324.955 214.894 324.836 214.894 324.698C214.894 324.559 236.463 324.441 263.078 324.441C289.693 324.441 311.262 324.549 311.262 324.698Z" fill="#455A64"/>
<path d="M311.262 333.849C311.262 333.987 289.683 334.106 263.078 334.106C236.473 334.106 214.894 333.987 214.894 333.849C214.894 333.71 236.463 333.591 263.078 333.591C289.693 333.591 311.262 333.7 311.262 333.849Z" fill="#455A64"/>
<path d="M148.664 305.525C148.664 305.663 135.802 305.782 119.971 305.782C104.141 305.782 91.2785 305.663 91.2785 305.525C91.2785 305.386 104.141 305.267 119.971 305.267C135.802 305.267 148.664 305.376 148.664 305.525Z" fill="#455A64"/>
<path d="M148.664 312.705C148.664 312.853 135.802 312.962 119.971 312.962C104.141 312.962 91.2785 312.853 91.2785 312.705C91.2785 312.556 104.141 312.447 119.971 312.447C135.802 312.447 148.664 312.527 148.664 312.705Z" fill="#455A64"/>
<path d="M148.664 319.895C148.664 320.033 135.802 320.152 119.971 320.152C104.141 320.152 91.2785 320.033 91.2785 319.895C91.2785 319.756 104.141 319.637 119.971 319.637C135.802 319.637 148.664 319.756 148.664 319.895Z" fill="#455A64"/>
<path d="M148.664 327.075C148.664 327.223 135.802 327.332 119.971 327.332C104.141 327.332 91.2785 327.223 91.2785 327.075C91.2785 326.926 104.141 326.817 119.971 326.817C135.802 326.817 148.664 326.936 148.664 327.075Z" fill="#455A64"/>
<path d="M148.664 334.314C148.664 334.453 135.802 334.571 119.971 334.571C104.141 334.571 91.2785 334.453 91.2785 334.314C91.2785 334.176 104.141 334.057 119.971 334.057C135.802 334.057 148.664 334.126 148.664 334.314Z" fill="#455A64"/>
<path d="M148.664 218.978H89.5668V276.21H148.664V218.978Z" fill="#E0E0E0"/>
<path d="M94.1478 271.308L110.503 241.855L123.869 260.681L132.002 250.689L144.083 271.308H94.1478Z" fill="#EE4248"/>
<path d="M129.568 236.131C129.568 236.973 129.318 237.796 128.851 238.496C128.383 239.197 127.719 239.743 126.942 240.065C126.164 240.387 125.309 240.472 124.484 240.307C123.658 240.143 122.9 239.737 122.305 239.142C121.711 238.546 121.305 237.787 121.141 236.961C120.977 236.135 121.061 235.279 121.383 234.501C121.705 233.723 122.251 233.058 122.95 232.59C123.65 232.122 124.472 231.872 125.314 231.872C126.442 231.872 127.524 232.321 128.322 233.119C129.12 233.918 129.568 235.001 129.568 236.131V236.131Z" fill="#EE4248"/>
<path d="M144.083 271.466C144.079 271.391 144.079 271.315 144.083 271.239C144.083 271.06 144.083 270.843 144.083 270.565C144.083 269.961 144.083 269.099 144.083 267.99C144.083 265.722 144.083 262.444 144.014 258.275C144.014 249.916 143.944 238.012 143.895 223.711L144.132 223.959H94.2071C94.1378 224.019 94.7315 223.424 94.4841 223.682V236.556C94.4841 240.756 94.4841 244.875 94.4841 248.886C94.4841 256.898 94.4841 264.475 94.4841 271.447L94.2368 271.209L130.34 271.328L140.531 271.397H143.232H144.172C144.172 271.397 144.103 271.397 143.954 271.397H143.281H140.63L130.498 271.466L94.2368 271.585H93.9993V271.338C93.9993 264.405 93.9993 256.789 93.9993 248.777C93.9993 244.766 93.9993 240.647 93.9993 236.447V223.573L94.2862 223.286H144.212H144.459V223.523C144.459 237.883 144.36 249.837 144.33 258.235C144.33 262.385 144.33 265.643 144.271 267.901C144.271 268.991 144.271 269.832 144.271 270.436C144.271 270.704 144.271 270.912 144.271 271.07C144.271 271.229 144.093 271.476 144.083 271.466Z" fill="#455A64"/>
<path d="M207.494 302.029H165.672V342.534H207.494V302.029Z" fill="#E0E0E0"/>
<path d="M168.917 339.068L180.483 318.231L189.952 331.551L195.7 324.47L204.258 339.068H168.917Z" fill="#EE4248"/>
<path d="M193.978 314.171C193.978 314.758 193.804 315.333 193.478 315.821C193.152 316.31 192.688 316.691 192.146 316.915C191.604 317.14 191.007 317.199 190.431 317.085C189.855 316.97 189.326 316.687 188.911 316.271C188.496 315.856 188.214 315.327 188.099 314.75C187.985 314.174 188.043 313.577 188.268 313.034C188.493 312.491 188.873 312.027 189.361 311.7C189.849 311.374 190.423 311.2 191.01 311.2C191.797 311.2 192.552 311.513 193.109 312.07C193.665 312.627 193.978 313.383 193.978 314.171Z" fill="#EE4248"/>
<path d="M204.258 339.187C204.255 339.131 204.255 339.075 204.258 339.019C204.258 338.9 204.258 338.741 204.258 338.543C204.258 338.117 204.258 337.553 204.258 336.721C204.258 335.117 204.258 332.76 204.209 329.838C204.209 323.896 204.209 315.498 204.13 305.386L204.298 305.554H168.956C168.956 305.554 169.332 305.178 169.154 305.366V323.193C169.154 328.867 169.154 334.225 169.154 339.167L168.976 338.989L194.533 339.078L201.735 339.127H203.645H201.765H194.602L168.937 339.217H168.768V339.048C168.768 334.096 168.768 328.749 168.768 323.074C168.768 320.241 168.768 317.32 168.768 314.349V305.277C168.59 305.445 169.006 305.02 168.966 305.069H204.308H204.476V305.238C204.476 315.399 204.407 323.856 204.387 329.808C204.387 332.779 204.387 335.047 204.387 336.642C204.387 337.414 204.387 338.008 204.387 338.434C204.387 338.622 204.387 338.771 204.387 338.89C204.364 338.996 204.32 339.097 204.258 339.187Z" fill="#455A64"/>
<path d="M556.723 361.054L546.829 359.875L544.504 378.435L558.979 380.307L559.197 379.168C560.127 374.077 563.54 353.24 562.927 349.685C562.244 345.723 556.723 361.054 556.723 361.054Z" fill="#EE4248"/>
<path d="M562.066 348.358C562.244 348.358 561.561 355.35 560.542 363.916C559.523 372.483 558.563 379.415 558.385 379.395C558.207 379.376 558.9 372.463 559.909 363.837C560.918 355.211 561.888 348.338 562.066 348.358Z" fill="#263238"/>
<path d="M558.781 360.182C558.682 360.321 558.168 360.123 557.693 359.668C557.218 359.212 557.02 358.677 557.158 358.588C557.297 358.499 557.713 358.786 558.148 359.212C558.583 359.638 558.89 360.064 558.781 360.182Z" fill="#263238"/>
<path d="M559.572 359.073C559.493 359.232 558.91 359.073 558.336 358.638C557.762 358.202 557.445 357.647 557.574 357.548C557.703 357.449 558.187 357.717 558.722 358.123C559.256 358.529 559.661 358.915 559.572 359.073Z" fill="#263238"/>
<path d="M558.989 373.79C558.989 373.869 558.741 374.117 558.247 374.473C557.618 374.902 557.032 375.389 556.495 375.929C555.989 376.466 555.622 377.119 555.427 377.831C555.288 378.385 555.328 378.752 555.229 378.771C555.13 378.791 554.952 378.425 554.982 377.781C555.051 376.936 555.399 376.138 555.971 375.513C556.537 374.922 557.208 374.442 557.95 374.097C558.573 373.82 558.939 373.711 558.989 373.79Z" fill="#263238"/>
<path d="M556.931 359.905C557.089 359.836 557.406 360.202 557.524 360.747C557.643 361.292 557.524 361.737 557.346 361.737C557.168 361.737 557.01 361.341 556.901 360.856C556.792 360.371 556.763 359.974 556.931 359.905Z" fill="#263238"/>
<path d="M555.941 360.064C556.11 360.064 556.199 360.579 556.139 361.212C556.08 361.846 555.872 362.322 555.704 362.282C555.536 362.242 555.437 361.737 555.506 361.143C555.575 360.549 555.763 360.064 555.941 360.064Z" fill="#263238"/>
<path d="M550.688 379.91L495.845 374.345L382.123 376.89L412.359 352.487L488.256 348.843L554.616 357.994L550.688 379.91Z" fill="#263238"/>
<path d="M457.991 364.669C457.991 364.817 447.315 364.926 434.146 364.926C420.977 364.926 410.311 364.817 410.311 364.669C410.311 364.52 420.977 364.411 434.146 364.411C447.315 364.411 457.991 364.53 457.991 364.669Z" fill="#455A64"/>
<path d="M452.687 350.546L456.585 375.097H464.065L458.376 350.279L452.687 350.546Z" fill="black"/>
<path d="M481.637 375.424L480.529 365.521L461.938 367.501L463.373 382H464.531C469.695 381.743 490.74 380.336 494.054 378.93C497.794 377.316 481.637 375.424 481.637 375.424Z" fill="#EE4248"/>
<path d="M494.44 377.89C494.44 378.068 487.514 378.989 478.956 379.95C470.398 380.911 463.432 381.544 463.413 381.366C463.393 381.188 470.338 380.277 478.887 379.316C487.435 378.356 494.42 377.751 494.44 377.89Z" fill="#263238"/>
<path d="M482.172 377.415C482.003 377.345 482.083 376.801 482.419 376.236C482.755 375.672 483.22 375.355 483.349 375.464C483.478 375.573 483.28 376.048 482.973 376.563C482.666 377.078 482.35 377.484 482.172 377.415Z" fill="#263238"/>
<path d="M483.448 377.89C483.28 377.89 483.3 377.246 483.596 376.583C483.893 375.919 484.328 375.503 484.477 375.592C484.625 375.682 484.477 376.216 484.18 376.83C483.883 377.444 483.616 377.979 483.448 377.89Z" fill="#263238"/>
<path d="M468.992 380.703C468.933 380.762 468.617 380.534 468.161 380.138C467.602 379.624 466.996 379.163 466.351 378.762C465.712 378.39 464.992 378.182 464.254 378.157C463.69 378.157 463.333 378.266 463.264 378.157C463.195 378.048 463.531 377.811 464.184 377.692C465.035 377.572 465.9 377.746 466.638 378.187C467.341 378.61 467.958 379.161 468.458 379.811C468.874 380.316 469.062 380.643 468.992 380.703Z" fill="#263238"/>
<path d="M482.033 375.543C482.142 375.682 481.855 376.068 481.35 376.315C480.846 376.563 480.361 376.543 480.361 376.375C480.361 376.206 480.668 375.959 481.113 375.741C481.558 375.523 481.934 375.394 482.033 375.543Z" fill="#263238"/>
<path d="M481.637 374.612C481.637 374.79 481.192 374.988 480.569 375.067C479.945 375.146 479.431 375.067 479.421 374.889C479.411 374.711 479.896 374.513 480.49 374.434C481.083 374.355 481.598 374.444 481.637 374.612Z" fill="#263238"/>
<path d="M372.862 262.137L388.693 261.85C388.911 260.018 389.217 252.877 389.217 252.877C389.217 252.877 395.846 252.253 396.331 245.697C396.816 239.141 396.608 223.969 396.608 223.969C392.975 222.133 388.919 221.301 384.858 221.559C380.797 221.817 376.878 223.155 373.506 225.435L372.516 226.128L372.862 262.137Z" fill="#B78876"/>
<path d="M394.421 235.17C394.249 234.986 394.153 234.744 394.153 234.491C394.153 234.239 394.249 233.997 394.421 233.813C394.557 233.668 394.733 233.568 394.927 233.525C395.12 233.482 395.322 233.498 395.507 233.571C395.691 233.644 395.849 233.771 395.961 233.935C396.072 234.099 396.132 234.293 396.132 234.491C396.132 234.69 396.072 234.884 395.961 235.048C395.849 235.212 395.691 235.339 395.507 235.412C395.322 235.485 395.12 235.501 394.927 235.458C394.733 235.415 394.557 235.314 394.421 235.17Z" fill="#263238"/>
<path d="M396.093 233.764C395.985 233.873 395.371 233.338 394.471 233.278C393.571 233.219 392.878 233.645 392.789 233.526C392.7 233.407 392.858 233.268 393.155 233.07C393.559 232.816 394.034 232.698 394.51 232.734C394.985 232.763 395.437 232.948 395.797 233.258C396.093 233.506 396.163 233.714 396.093 233.764Z" fill="#263238"/>
<path d="M385.645 233.912C385.787 234.08 385.869 234.29 385.878 234.509C385.888 234.729 385.824 234.945 385.697 235.124C385.57 235.303 385.387 235.435 385.177 235.499C384.967 235.563 384.742 235.555 384.537 235.477C384.396 235.423 384.269 235.338 384.166 235.227C384.063 235.117 383.987 234.984 383.943 234.839C383.899 234.695 383.889 234.542 383.913 234.393C383.937 234.244 383.995 234.102 384.083 233.979C384.17 233.856 384.284 233.754 384.417 233.682C384.55 233.609 384.697 233.569 384.848 233.562C384.999 233.556 385.149 233.584 385.287 233.645C385.425 233.705 385.548 233.797 385.645 233.912Z" fill="#263238"/>
<path d="M386.199 233.952C386.091 234.061 385.477 233.526 384.567 233.466C383.657 233.407 382.984 233.833 382.885 233.714C382.786 233.595 382.954 233.457 383.261 233.258C383.664 233.004 384.139 232.886 384.614 232.921C385.09 232.957 385.542 233.145 385.903 233.457C386.199 233.694 386.288 233.912 386.199 233.952Z" fill="#263238"/>
<path d="M389.405 241.647C389.881 241.491 390.379 241.417 390.879 241.429C391.117 241.429 391.315 241.37 391.334 241.251C391.358 241.012 391.314 240.772 391.206 240.557L390.602 238.676C390.022 237.071 389.604 235.412 389.356 233.724C390.099 235.254 390.682 236.857 391.097 238.507C391.295 239.161 391.473 239.785 391.661 240.399C391.796 240.712 391.82 241.061 391.73 241.389C391.689 241.478 391.629 241.556 391.554 241.618C391.478 241.68 391.39 241.723 391.295 241.746C391.16 241.764 391.024 241.764 390.889 241.746C390.392 241.795 389.891 241.762 389.405 241.647V241.647Z" fill="#263238"/>
<path d="M386.407 242.469C385.497 241.845 388.91 244.004 390.76 244.024C390.423 244.48 389.942 244.81 389.394 244.959C388.847 245.108 388.265 245.068 387.743 244.846C385.824 244.004 386.407 242.469 386.407 242.469Z" fill="white"/>
<path d="M389.256 252.778C386.221 252.645 383.294 251.611 380.847 249.807C380.847 249.807 382.578 254.66 389.167 254.472L389.256 252.778Z" fill="#A36957"/>
<path d="M397.083 221.602C397.459 221.59 397.828 221.491 398.16 221.314C398.492 221.136 398.779 220.885 399 220.58C399.22 220.274 399.367 219.922 399.43 219.55C399.493 219.179 399.47 218.798 399.363 218.436C399.256 218.075 399.068 217.743 398.813 217.466C398.557 217.189 398.242 216.974 397.891 216.838C397.54 216.702 397.163 216.648 396.787 216.681C396.412 216.713 396.05 216.832 395.727 217.027C396.514 216.379 397.154 215.572 397.607 214.66C397.825 214.201 397.897 213.686 397.814 213.185C397.731 212.684 397.497 212.221 397.142 211.857C396.729 211.573 396.247 211.406 395.747 211.375C395.247 211.344 394.748 211.449 394.303 211.679C392.908 212.283 391.809 213.461 390.345 213.956C388.881 214.452 387.318 214.204 385.784 214.273C384.075 214.306 382.42 214.878 381.055 215.907C380.383 216.428 379.842 217.098 379.476 217.865C379.11 218.632 378.929 219.475 378.947 220.324C376.8 220.067 374.426 220.037 372.734 221.374C372.053 221.981 371.515 222.73 371.157 223.569C370.8 224.408 370.632 225.316 370.666 226.227C370.831 228.047 371.264 229.832 371.952 231.525V231.525C372.072 232.022 372.295 232.487 372.605 232.892L373.407 237.606L376.325 237.547L376.137 227.742C376.137 227.742 375.84 223.603 379.402 223.969C382.964 224.335 387.783 228.346 394.699 227.326C395.829 227.267 396.932 226.952 397.924 226.405C398.405 226.102 398.796 225.676 399.057 225.171C399.318 224.667 399.439 224.101 399.408 223.533C399.348 222.972 399.071 222.456 398.637 222.095C398.203 221.734 397.645 221.558 397.083 221.602V221.602Z" fill="#263238"/>
<path d="M373.772 231.951C373.624 231.902 368.895 231.288 369.34 236.903C369.785 242.518 375.276 240.191 375.276 240.033C375.276 239.874 373.772 231.951 373.772 231.951Z" fill="#B78876"/>
<path d="M373.416 238.181C373.416 238.181 373.317 238.25 373.159 238.339C372.937 238.456 372.679 238.484 372.437 238.418C372.059 238.217 371.741 237.92 371.515 237.557C371.289 237.193 371.164 236.776 371.151 236.348C371.095 235.87 371.149 235.386 371.309 234.932C371.347 234.752 371.428 234.584 371.545 234.443C371.662 234.301 371.812 234.19 371.982 234.12C372.092 234.082 372.211 234.084 372.32 234.126C372.428 234.168 372.519 234.246 372.575 234.348C372.664 234.496 372.635 234.605 372.664 234.615C372.694 234.625 372.783 234.516 372.714 234.288C372.676 234.15 372.588 234.03 372.467 233.952C372.387 233.9 372.298 233.864 372.204 233.847C372.111 233.83 372.015 233.832 371.922 233.853C371.685 233.917 371.469 234.042 371.296 234.216C371.122 234.39 370.997 234.606 370.933 234.843C370.731 235.345 370.659 235.89 370.725 236.428C370.736 236.926 370.894 237.41 371.179 237.819C371.464 238.228 371.864 238.543 372.328 238.725C372.482 238.758 372.641 238.755 372.793 238.718C372.946 238.68 373.088 238.608 373.209 238.507C373.416 238.309 373.436 238.19 373.416 238.181Z" fill="#A36957"/>
<path d="M360.02 360.064C362.988 364.491 380.985 391.606 402.475 371.889C429.852 346.793 451.5 324.807 451.5 324.807L459.633 374.473L485.12 373.087C485.12 373.087 475.226 299.137 468.913 292.412C461.899 284.906 455.448 285.539 400.358 329.056L360.02 360.064Z" fill="#455A64"/>
<path d="M451.184 275.844L474.989 258.453L476.156 260.325L452.509 277.924L451.184 275.844Z" fill="#263238"/>
<path d="M457.07 275.309C457.07 275.309 460.256 266.99 461.028 265.217C461.8 263.445 462.957 260.355 463.412 260.265C463.867 260.176 465.529 260.464 463.412 265.752C461.295 271.041 465.984 267.812 465.984 267.812L470.565 264.524C470.565 264.524 474.186 275.358 472.128 278.627C470.51 281.067 468.694 283.369 466.697 285.51L457.07 275.309Z" fill="#B78876"/>
<path d="M457.338 274.339C456.863 273.259 426.587 300.018 420.561 300.93L402.911 277.924C402.911 277.924 399.25 272.1 391.384 262.137C386.298 255.71 372.289 257.047 368.628 264.881C362.375 278.191 362.296 292.987 358.961 321.777L357.507 341.247C357.193 345.39 357.256 349.554 357.695 353.686C358.229 358.509 359.317 363.589 361.554 362.866L401.931 329.462L403.227 314.289C411.716 322.906 414.358 324.708 418.771 324.015C429.882 322.292 468.775 287.282 468.775 287.282C468.775 287.282 457.803 275.428 457.338 274.339Z" fill="#EE4248"/>
<path d="M463.56 292.145C462.772 291.671 462.045 291.102 461.394 290.452C459.739 288.973 458.189 287.381 456.754 285.688C455.309 284.001 453.987 282.214 452.796 280.34C452.266 279.585 451.818 278.774 451.461 277.924C452.06 278.617 452.606 279.356 453.093 280.132C454.082 281.509 455.467 283.39 457.139 285.351C458.811 287.312 460.434 288.996 461.641 290.184C462.326 290.792 462.967 291.447 463.56 292.145V292.145Z" fill="#263238"/>
<path d="M418.85 310.051C418.866 308.5 419.052 306.956 419.404 305.446C419.598 303.906 419.956 302.392 420.472 300.93C420.457 302.48 420.271 304.025 419.918 305.535C419.726 307.074 419.368 308.588 418.85 310.051V310.051Z" fill="#263238"/>
<path d="M422.708 309.1C422.097 307.841 421.645 306.51 421.363 305.139C420.926 303.812 420.643 302.44 420.522 301.048C421.133 302.308 421.585 303.638 421.867 305.01C422.303 306.337 422.585 307.709 422.708 309.1V309.1Z" fill="#263238"/>
<path d="M378.997 281.964C379.359 282.364 379.69 282.791 379.986 283.242L382.618 286.827C384.844 289.847 387.951 294.007 391.424 298.553L400.378 310.179L403.079 313.715C403.444 314.133 403.775 314.58 404.068 315.052C403.671 314.675 403.304 314.268 402.97 313.834C402.287 313.032 401.328 311.853 400.14 310.407C397.776 307.486 394.54 303.425 391.067 298.87C387.595 294.314 384.528 290.115 382.381 287.035C381.302 285.5 380.402 284.242 379.867 283.361C379.54 282.919 379.249 282.452 378.997 281.964Z" fill="#263238"/>
<path d="M373.832 301.534C372.785 300.94 371.829 300.2 370.992 299.335C370.042 298.591 369.199 297.717 368.489 296.74C369.541 297.334 370.501 298.078 371.339 298.949C372.292 299.683 373.132 300.554 373.832 301.534V301.534Z" fill="#263238"/>
<path d="M370.369 312.695C369.337 314.835 368.004 316.816 366.411 318.578C366.847 317.466 367.443 316.425 368.182 315.488C368.774 314.457 369.51 313.517 370.369 312.695V312.695Z" fill="#263238"/>
<path d="M375.237 328.095C375.128 328.184 374.247 327.293 373.258 326.114C372.591 325.442 372.049 324.658 371.655 323.797C371.764 323.708 372.645 324.599 373.634 325.778C374.302 326.448 374.845 327.233 375.237 328.095V328.095Z" fill="#263238"/>
<path d="M365.817 337.969C365.193 338.701 364.442 339.315 363.601 339.781C362.855 340.387 362.007 340.856 361.098 341.168C361.722 340.435 362.473 339.822 363.314 339.355C364.061 338.75 364.908 338.28 365.817 337.969V337.969Z" fill="#263238"/>
<path d="M378.987 340.583C377.938 340.126 377.03 339.398 376.355 338.474C375.552 337.647 374.982 336.622 374.703 335.503C374.841 335.433 375.563 336.741 376.741 338.117C377.918 339.494 379.076 340.455 378.987 340.583Z" fill="#263238"/>
<path d="M391.265 331.254C390.542 332.201 389.689 333.041 388.732 333.75C387.88 334.583 386.914 335.29 385.863 335.849C386.586 334.902 387.438 334.062 388.396 333.354C389.246 332.518 390.212 331.811 391.265 331.254V331.254Z" fill="#263238"/>
<path d="M365.996 349.269C364.305 348.492 362.962 347.116 362.226 345.406C362.345 345.327 363.087 346.278 364.126 347.328C365.165 348.377 366.085 349.17 365.996 349.269Z" fill="#263238"/>
<path d="M393.452 322.43C391.752 323.404 389.792 323.826 387.842 323.638C389.691 323.143 391.563 322.74 393.452 322.43V322.43Z" fill="#263238"/>
<path d="M384.31 312.021C384.105 313.228 383.773 314.41 383.32 315.547C382.998 316.69 382.612 317.815 382.163 318.914H382.054C382.054 318.855 382.113 318.835 382.133 318.835C382.153 318.835 382.133 318.835 382.133 318.944H382.024C382.141 317.755 382.4 316.585 382.796 315.458C383.098 314.233 383.61 313.071 384.31 312.021V312.021Z" fill="#263238"/>
<path d="M388.178 305.416C387.104 304.967 386.104 304.359 385.21 303.613C384.229 303.007 383.345 302.256 382.588 301.385C383.642 301.843 384.625 302.45 385.507 303.187C386.504 303.792 387.404 304.543 388.178 305.416V305.416Z" fill="#263238"/>
<path d="M380.263 290.858C379.964 291.84 379.465 292.751 378.799 293.532C378.263 294.407 377.557 295.165 376.721 295.76C377.164 294.847 377.723 293.995 378.383 293.225C378.9 292.354 379.532 291.558 380.263 290.858Z" fill="#263238"/>
<path d="M368.212 288.877C368.047 287.764 368.047 286.633 368.212 285.52C368.224 284.396 368.405 283.282 368.746 282.212C368.924 283.32 368.924 284.45 368.746 285.559C368.744 286.686 368.563 287.806 368.212 288.877V288.877Z" fill="#263238"/>
<path d="M363.512 310.704C363.244 309.519 363.138 308.303 363.196 307.09C363.096 305.881 363.162 304.665 363.394 303.475C363.776 305.867 363.816 308.301 363.512 310.704Z" fill="#263238"/>
<path d="M362.859 331.64C362.41 330.998 362.11 330.264 361.979 329.491C361.687 328.765 361.552 327.986 361.583 327.204C362.338 328.567 362.775 330.084 362.859 331.64V331.64Z" fill="#263238"/>
<path d="M379.521 272.546C378.735 273.448 377.882 274.289 376.968 275.061C376.177 275.959 375.313 276.791 374.386 277.547C374.924 276.453 375.682 275.482 376.612 274.695C377.42 273.782 378.411 273.05 379.521 272.546V272.546Z" fill="#263238"/>
<path d="M372.447 270.179C372.233 269.1 372.192 267.993 372.328 266.901C372.288 265.801 372.422 264.701 372.724 263.643C372.932 264.723 372.972 265.828 372.843 266.921C372.877 268.021 372.743 269.119 372.447 270.179V270.179Z" fill="#263238"/>
<path d="M389.781 267.822C387.921 266.696 386.125 265.47 384.399 264.148C386.481 264.884 388.336 266.15 389.781 267.822Z" fill="#263238"/>
<path d="M386.012 280.182C385.738 279.048 385.628 277.88 385.685 276.715C385.578 275.554 385.642 274.383 385.873 273.239C386.261 275.53 386.308 277.867 386.012 280.172V280.182Z" fill="#263238"/>
<path d="M396.163 287.411C394.166 287.013 392.186 286.538 390.226 285.985C392.303 285.859 394.37 286.355 396.163 287.411V287.411Z" fill="#263238"/>
<path d="M396.855 280.043C396.506 278.114 396.506 276.138 396.855 274.21C397.115 275.157 397.212 276.142 397.142 277.121C397.22 278.105 397.123 279.094 396.855 280.043V280.043Z" fill="#263238"/>
<path d="M404.593 292.412C404.277 291.214 404.134 289.977 404.167 288.738C404.031 287.508 404.064 286.265 404.266 285.044C404.711 287.474 404.821 289.953 404.593 292.412V292.412Z" fill="#263238"/>
<path d="M398.646 296.592C398.537 296.691 397.736 295.958 396.855 294.968C395.975 293.977 395.342 293.086 395.45 292.987C395.559 292.888 396.361 293.621 397.241 294.621C398.122 295.621 398.755 296.503 398.646 296.592Z" fill="#263238"/>
<path d="M406.165 302.296C405.232 302.614 404.252 302.774 403.267 302.771C402.285 302.942 401.28 302.942 400.299 302.771C401.226 302.442 402.204 302.281 403.187 302.296C404.172 302.112 405.181 302.112 406.165 302.296Z" fill="#263238"/>
<path d="M411.825 305.188C411.406 303.038 411.323 300.837 411.578 298.662C412.009 300.81 412.092 303.013 411.825 305.188Z" fill="#263238"/>
<path d="M417.405 316.032C416.219 316.26 415 316.26 413.814 316.032C412.608 315.985 411.422 315.706 410.321 315.21C411.512 315.206 412.701 315.312 413.873 315.527C415.064 315.578 416.247 315.748 417.405 316.032V316.032Z" fill="#263238"/>
<path d="M427.002 311.031C426.594 313.28 425.847 315.454 424.786 317.478C424.902 316.345 425.193 315.235 425.647 314.19C425.93 313.072 426.387 312.006 427.002 311.031V311.031Z" fill="#263238"/>
<path d="M433.918 302.276C431.861 302.061 429.855 301.502 427.982 300.622C430.037 300.851 432.041 301.409 433.918 302.276V302.276Z" fill="#263238"/>
<path d="M439.479 305.594C438.89 306.455 438.165 307.215 437.332 307.842C436.608 308.593 435.77 309.225 434.848 309.714C435.431 308.845 436.157 308.081 436.995 307.456C437.719 306.707 438.557 306.079 439.479 305.594V305.594Z" fill="#263238"/>
<path d="M441.705 297.404C441.158 296.425 440.821 295.342 440.716 294.225C440.432 293.132 440.384 291.99 440.577 290.877C440.892 291.941 441.108 293.032 441.22 294.136C441.484 295.207 441.646 296.302 441.705 297.404V297.404Z" fill="#263238"/>
<path d="M452.291 295.522C450.256 297.556 448.198 299.566 446.118 301.553C447.689 299.098 449.801 297.035 452.291 295.522V295.522Z" fill="#263238"/>
<path d="M453.34 291.729C452.204 291.569 451.1 291.235 450.065 290.739C448.968 290.416 447.926 289.925 446.979 289.283C448.11 289.447 449.211 289.781 450.243 290.273C451.342 290.603 452.385 291.093 453.34 291.729Z" fill="#263238"/>
<path d="M452.331 287.659C451.828 286.837 451.476 285.931 451.292 284.985C450.946 284.083 450.762 283.128 450.748 282.162C451.234 282.988 451.569 283.893 451.738 284.836C452.095 285.736 452.296 286.691 452.331 287.659Z" fill="#263238"/>
<path d="M396.944 316.191C396.825 316.28 395.955 315.3 395.084 314.012C394.457 313.281 393.968 312.442 393.64 311.536C394.385 312.146 395.014 312.884 395.5 313.715C396.118 314.452 396.606 315.29 396.944 316.191V316.191Z" fill="#263238"/>
<path d="M472.376 366.085C472.335 365.946 472.308 365.804 472.297 365.659C472.258 365.362 472.198 364.946 472.119 364.411C471.981 363.292 471.763 361.678 471.496 359.618C470.932 355.458 470.131 349.427 468.933 342.009C467.736 334.592 466.143 325.787 463.878 316.122C463.646 314.908 463.249 313.732 462.7 312.626C462.078 311.534 461.275 310.556 460.326 309.734C458.31 308.064 455.734 307.228 453.123 307.396C451.791 307.471 450.49 307.825 449.304 308.436C448.112 309.109 446.977 309.877 445.91 310.734L439.103 315.795C429.941 322.678 421.363 329.422 413.705 335.75C406.047 342.079 399.368 348.001 393.778 353.022C390.949 355.458 387.931 357.409 384.874 357.726C383.471 357.886 382.051 357.713 380.728 357.221C379.627 356.806 378.591 356.236 377.651 355.528C376.364 354.548 375.172 353.451 374.089 352.25L373.248 351.319C373.146 351.215 373.053 351.103 372.971 350.982C373.085 351.068 373.188 351.168 373.278 351.279L374.158 352.18C375.272 353.342 376.48 354.408 377.77 355.369C378.705 356.045 379.727 356.591 380.807 356.993C382.1 357.453 383.482 357.606 384.844 357.439C387.812 357.112 390.78 355.181 393.551 352.745C399.101 347.704 405.76 341.712 413.418 335.384C421.076 329.056 429.634 322.262 438.806 315.379L445.613 310.318C446.706 309.447 447.867 308.665 449.086 307.981C450.333 307.337 451.702 306.965 453.103 306.891C455.842 306.718 458.543 307.601 460.652 309.357C461.652 310.217 462.492 311.246 463.136 312.398C463.702 313.542 464.112 314.758 464.352 316.013C466.598 325.708 468.142 334.532 469.299 341.95C470.457 349.368 471.199 355.419 471.704 359.588C471.931 361.658 472.109 363.272 472.238 364.401C472.238 364.936 472.327 365.392 472.357 365.659C472.377 365.8 472.383 365.943 472.376 366.085V366.085Z" fill="#263238"/>
<path d="M483.933 365.53C483.612 365.629 483.279 365.683 482.943 365.689C482.3 365.758 481.37 365.837 480.223 365.917C477.917 366.075 474.741 366.244 471.229 366.392L462.235 366.778L459.504 366.877C459.176 366.916 458.844 366.916 458.515 366.877C458.835 366.772 459.168 366.712 459.504 366.699C460.148 366.62 461.078 366.531 462.225 366.432C464.531 366.243 467.707 366.055 471.219 365.897L480.223 365.57L482.953 365.511C483.279 365.477 483.608 365.483 483.933 365.53V365.53Z" fill="#263238"/>
<path d="M458.574 317.062C456.321 320.733 453.386 323.937 449.927 326.501C449.828 326.382 451.906 324.45 454.32 321.846C456.734 319.241 458.425 316.973 458.574 317.062Z" fill="#263238"/>
<path d="M459.534 320.073C458.2 321.092 456.791 322.009 455.319 322.816C453.935 323.778 452.48 324.632 450.966 325.371C452.19 324.208 453.56 323.21 455.042 322.4C456.433 321.434 457.942 320.652 459.534 320.073V320.073Z" fill="#263238"/>
<path d="M542.891 368.085C542.691 368.107 542.488 368.107 542.288 368.085L540.546 367.986L534.214 367.382L513.348 365.204C505.195 364.352 497.834 363.401 492.481 363.134C489.81 362.995 487.633 363.005 486.139 363.064L484.418 363.134C484.214 363.159 484.008 363.159 483.804 363.134C484.002 363.085 484.204 363.051 484.408 363.035C484.794 362.975 485.397 362.926 486.129 362.856C488.25 362.717 490.377 362.687 492.501 362.767C497.883 362.946 505.254 363.837 513.397 364.689L534.264 366.996L540.586 367.759L542.298 367.986C542.499 367.996 542.698 368.029 542.891 368.085V368.085Z" fill="#455A64"/>
<path d="M541.635 379.158C541.496 379.158 541.941 374.206 542.624 368.056C543.307 361.906 543.999 357.003 544.138 357.023C544.276 357.043 543.831 361.975 543.148 368.115C542.466 374.255 541.773 379.168 541.635 379.158Z" fill="#455A64"/>
</svg>
