<svg width="453" height="351" viewBox="0 0 453 351" fill="none" xmlns="http://www.w3.org/2000/svg">
<path d="M303.873 233.241C302.508 231.726 305.726 222.876 321 222.25C336.273 221.623 342.391 227.193 342.414 233.241C342.425 235.918 303.873 233.241 303.873 233.241Z" fill="#455A64"/>
<path d="M296.333 1.70738L279.365 106.802H434.326L453 0.579773L296.333 1.70738Z" fill="#F5F5F5"/>
<path d="M294.786 11.2635C294.854 10.899 451.226 10.6712 451.226 10.6712L453 0.579773L296.333 1.71876L294.786 11.2863" fill="#E0E0E0"/>
<path d="M302.883 6.43417C302.885 6.72074 302.802 7.00153 302.645 7.2409C302.488 7.48027 302.263 7.66745 301.999 7.77868C301.736 7.88991 301.445 7.92018 301.164 7.86566C300.883 7.81114 300.625 7.67429 300.422 7.47245C300.219 7.27061 300.08 7.01289 300.023 6.73199C299.967 6.45109 299.995 6.15966 300.104 5.89468C300.213 5.6297 300.398 5.40311 300.635 5.24365C300.873 5.0842 301.153 4.99906 301.439 4.99905C301.628 4.99755 301.815 5.03355 301.991 5.105C302.166 5.17645 302.325 5.28193 302.459 5.41535C302.594 5.54876 302.7 5.70747 302.773 5.88234C302.846 6.0572 302.883 6.24475 302.883 6.43417Z" fill="#263238"/>
<path d="M309.934 6.43417C309.934 6.71802 309.85 6.99549 309.692 7.2315C309.535 7.4675 309.311 7.65144 309.049 7.76006C308.788 7.86869 308.5 7.89711 308.222 7.84173C307.944 7.78636 307.688 7.64968 307.488 7.44897C307.288 7.24826 307.151 6.99255 307.096 6.71416C307.041 6.43577 307.069 6.14721 307.177 5.88498C307.286 5.62274 307.47 5.3986 307.705 5.24091C307.941 5.08321 308.218 4.99905 308.501 4.99905C308.881 4.99905 309.246 5.15026 309.514 5.4194C309.783 5.68854 309.934 6.05356 309.934 6.43417Z" fill="#263238"/>
<path d="M316.996 6.43417C316.998 6.72074 316.916 7.00153 316.758 7.2409C316.601 7.48027 316.376 7.66745 316.113 7.77868C315.849 7.88991 315.558 7.92018 315.277 7.86566C314.996 7.81114 314.738 7.67429 314.535 7.47245C314.332 7.27061 314.193 7.01289 314.137 6.73199C314.08 6.45109 314.108 6.15966 314.217 5.89468C314.326 5.6297 314.511 5.40311 314.749 5.24365C314.986 5.0842 315.266 4.99906 315.552 4.99905C315.741 4.99755 315.929 5.03355 316.104 5.105C316.279 5.17645 316.438 5.28193 316.572 5.41535C316.707 5.54876 316.813 5.70747 316.886 5.88234C316.959 6.0572 316.996 6.24475 316.996 6.43417V6.43417Z" fill="#263238"/>
<path d="M334.499 58.4746L315.109 80.9355C311.447 78.4475 308.439 75.1121 306.339 71.2121C304.238 67.3121 303.107 62.9623 303.042 58.5316C303.042 42.916 317.247 30.0568 334.499 30.0568C351.751 30.0568 365.955 42.9046 365.955 58.5316L334.499 58.4746Z" fill="#EE4248"/>
<path d="M336.989 62.0396C336.895 62.1986 336.784 62.3475 336.66 62.4838L335.647 63.6912L331.804 68.2471C328.46 72.1653 323.706 77.7007 318.009 84.3638V83.9994C322.305 86.9611 327.267 88.8084 332.452 89.3754C338.305 90.0513 344.232 89.155 349.624 86.7785C354.771 84.5395 359.216 80.9459 362.486 76.3795C363.96 74.2502 365.142 71.9325 366.001 69.4886C366.75 67.2058 367.204 64.8365 367.354 62.4383L367.604 62.7003L345.428 62.3244L339.196 62.1877L337.547 62.1308C337.354 62.1489 337.16 62.1489 336.967 62.1308C337.148 62.1132 337.331 62.1132 337.513 62.1308H339.139H345.337L367.604 62.2788H367.877V62.5522C367.748 65.0041 367.297 67.4282 366.535 69.762C365.671 72.2585 364.474 74.6263 362.975 76.8009C359.644 81.4892 355.093 85.1726 349.818 87.4505C344.325 89.8573 338.293 90.7613 332.338 90.0702C327.065 89.4708 322.024 87.5686 317.668 84.5347L317.44 84.3752L317.622 84.1588L331.656 68.1332L335.579 63.6912L336.625 62.5522C336.732 62.371 336.853 62.1995 336.989 62.0396V62.0396Z" fill="#263238"/>
<path d="M347.873 43.326C348.846 43.326 349.635 42.5356 349.635 41.5606C349.635 40.5856 348.846 39.7952 347.873 39.7952C346.899 39.7952 346.11 40.5856 346.11 41.5606C346.11 42.5356 346.899 43.326 347.873 43.326Z" fill="#263238"/>
<path d="M384.651 28.6445C384.102 28.7298 383.547 28.7679 382.991 28.7584L378.442 28.8495C374.632 28.8495 369.344 28.9406 363.555 28.9406H360.781L360.985 28.8609C357.335 32.5056 354.082 35.6948 351.728 37.9728L348.942 40.638C348.624 40.9842 348.265 41.2902 347.873 41.5492C348.149 41.1703 348.457 40.8159 348.794 40.49C349.488 39.7496 350.386 38.8156 351.455 37.6994C353.73 35.3417 356.937 32.0842 360.553 28.4167L360.633 28.3369H363.624C369.435 28.3369 374.7 28.3369 378.51 28.4167L383.059 28.5192C383.593 28.5104 384.126 28.5524 384.651 28.6445V28.6445Z" fill="#263238"/>
<path d="M424.591 50.832C424.599 50.6287 424.626 50.4266 424.671 50.2283C424.739 49.8183 424.83 49.2602 424.955 48.5426L426.093 42.1757L430.198 19.3275L430.437 19.6123L386.391 19.6692L386.676 19.43V19.544V19.6806V19.9426L386.573 20.4665L386.38 21.5258L385.993 23.6215C385.732 25.0111 385.482 26.3893 385.22 27.7561C384.72 30.4896 384.223 33.1777 383.73 35.8201C382.741 41.0822 381.797 46.071 380.921 50.8662L380.648 50.5472L412.377 50.6725L421.475 50.7523H423.898H424.523H424.751H424.557H423.955H421.578L412.571 50.8206L380.728 50.9459H380.409L380.466 50.627C381.342 45.8774 382.263 40.8317 383.241 35.5581C383.719 32.9271 384.219 30.2391 384.72 27.5055C384.981 26.1273 385.231 24.7491 385.493 23.3596C385.618 22.6648 385.743 21.97 385.88 21.2638L386.073 20.216L386.164 19.692L386.221 19.4187V19.2934V19.1909L386.516 18.9403L430.562 18.9972H430.721L430.664 19.282C428.845 28.8153 427.344 36.6857 426.297 42.2098C425.763 44.9092 425.353 47.0278 425.058 48.5198L424.728 50.1486C424.637 50.6611 424.591 50.8434 424.591 50.832Z" fill="#263238"/>
<path d="M350.636 78.8397C351.609 78.8397 352.399 78.0493 352.399 77.0743C352.399 76.0993 351.609 75.3089 350.636 75.3089C349.663 75.3089 348.874 76.0993 348.874 77.0743C348.874 78.0493 349.663 78.8397 350.636 78.8397Z" fill="#263238"/>
<path d="M382.638 77.0738C382.638 77.2444 375.474 77.3694 366.637 77.3694C357.801 77.3694 350.636 77.2444 350.636 77.0738C350.636 76.9032 357.801 76.7782 366.637 76.7782C375.474 76.7782 382.638 76.9146 382.638 77.0738Z" fill="#263238"/>
<path d="M424.591 90.8333C424.606 90.687 424.632 90.5422 424.671 90.4005C424.739 90.0929 424.83 89.6829 424.955 89.1704C425.217 88.0314 425.592 86.5165 426.093 84.5347C427.082 80.5027 428.492 74.7508 430.232 67.6776L430.448 67.951L385.027 68.0193L385.311 67.8029V67.8713V67.9624V68.156L385.209 68.5433L385.015 69.295L384.64 70.8212C384.378 71.8236 384.128 72.8259 383.878 73.8282L382.263 79.7965C381.285 83.6577 380.341 87.3935 379.431 90.9586L379.17 90.6169L411.752 90.7422L421.168 90.8105H423.693H424.353H424.591H424.387H423.75H421.282L411.911 90.8788L379.17 91.0041H378.806L378.897 90.6511C379.795 87.086 380.728 83.3387 381.695 79.4776C382.18 77.5413 382.676 75.5784 383.184 73.589L383.935 70.5821L384.322 69.0672L384.515 68.3041L384.606 67.9168V67.7346V67.6321V67.5637L384.89 67.3359L430.312 67.4157H430.721L430.653 67.689C428.811 74.7963 427.321 80.571 426.275 84.6144C425.751 86.5621 425.342 88.0997 425.058 89.1704C424.921 89.6601 424.819 90.0474 424.739 90.3094C424.66 90.5713 424.591 90.8447 424.591 90.8333Z" fill="#263238"/>
<path d="M421.009 29.0426C421.009 29.2132 414.265 29.3383 405.941 29.3383C397.616 29.3383 390.872 29.2132 390.872 29.0426C390.872 28.8721 397.616 28.747 405.941 28.747C414.265 28.747 421.009 28.8834 421.009 29.0426Z" fill="#263238"/>
<path d="M420.657 33.9858C420.657 34.1564 413.833 34.2815 405.508 34.2815C397.184 34.2815 390.349 34.1564 390.349 33.9858C390.349 33.8153 397.172 33.6902 405.508 33.6902C413.844 33.6902 420.657 33.8266 420.657 33.9858Z" fill="#263238"/>
<path d="M419.781 38.7924C419.781 38.9516 413.23 39.088 405.156 39.088C397.081 39.088 390.52 38.9516 390.52 38.7924C390.52 38.6332 397.07 38.4967 405.156 38.4967C413.242 38.4967 419.781 38.5877 419.781 38.7924Z" fill="#263238"/>
<path d="M420.304 76.5271C420.304 76.6863 413.879 76.8227 405.941 76.8227C398.003 76.8227 391.577 76.6863 391.577 76.5271C391.577 76.3679 398.014 76.2314 405.941 76.2314C413.867 76.2314 420.304 76.3793 420.304 76.5271Z" fill="#263238"/>
<path d="M418.541 81.9942C418.541 82.1648 413.06 82.2899 406.293 82.2899C399.527 82.2899 394.045 82.1648 394.045 81.9942C394.045 81.8237 399.527 81.6986 406.293 81.6986C413.06 81.6986 418.541 81.8351 418.541 81.9942Z" fill="#263238"/>
<path d="M235.501 196.429C234.955 199.63 219.785 233.253 229.576 233.253H278.796C278.796 233.253 273.713 228.469 289.1 196.429H235.501Z" fill="#455A64"/>
<path d="M203.658 84.2044L183.54 201.953H353.229L374.041 80.0699L203.658 84.2044Z" fill="#455A64"/>
<path d="M209.424 89.9449L192.468 195.051H347.418L366.092 88.8287L209.424 89.9449Z" fill="#FAFAFA"/>
<path d="M374.041 80.0699L377.248 82.2339L355.64 205.154H188.021L183.54 201.953H353.229L374.041 80.0699Z" fill="#263238"/>
<path d="M207.889 99.5124C207.946 99.1365 364.317 98.9201 364.317 98.9201L366.092 88.8287L209.424 89.9677L207.889 99.5352" fill="#EBEBEB"/>
<path d="M323.001 185.723V185.426L323.138 184.549C323.282 183.714 323.475 182.575 323.718 181.132C324.252 178.069 325.003 173.672 325.935 168.216C327.869 157.168 330.564 141.792 333.623 124.342V124.092H346.428L346.372 124.445C341.629 150.175 337.478 172.784 335.079 185.779V185.916H334.954L326.038 185.825H323.763H323.206H323.82H326.174L334.988 185.734L334.828 185.859L345.837 124.479L346.133 124.821H333.941L334.226 124.582C331.076 141.928 328.312 157.202 326.265 168.193C325.264 173.661 324.445 178.069 323.877 181.144C323.592 182.636 323.376 183.809 323.217 184.652C323.138 185.028 323.081 185.335 323.035 185.563C323.026 185.617 323.015 185.67 323.001 185.723V185.723Z" fill="#263238"/>
<path d="M303.35 185.722C303.365 185.446 303.406 185.171 303.475 184.902C303.577 184.299 303.725 183.49 303.907 182.465C304.316 180.267 304.885 177.157 305.601 173.353C307.091 165.46 309.172 154.48 311.549 141.928V141.689H324.355L324.286 142.042C320.693 159.89 317.463 175.756 315.461 185.814V185.962H315.313L306.409 185.859H304.134C303.881 185.876 303.626 185.876 303.372 185.859H304.214H306.579L315.359 185.757L315.177 185.905C317.156 175.836 320.272 159.959 323.775 142.088L324.059 142.441H311.799L312.084 142.213C309.616 154.651 307.455 165.54 305.897 173.364C305.112 177.248 304.487 180.369 304.032 182.568L303.52 185.062C303.52 185.324 303.406 185.54 303.372 185.711L303.35 185.722Z" fill="#263238"/>
<path d="M283.618 185.722C283.609 185.601 283.609 185.479 283.618 185.358L283.8 184.219C283.971 183.217 284.21 181.782 284.528 179.936C285.188 176.166 286.132 170.733 287.314 163.991C289.725 150.323 293.08 131.404 296.879 109.957V109.718H309.684L309.627 110.059C303.691 142.623 298.448 170.995 295.673 185.722V185.848H295.548L286.598 185.757H284.323H283.573H284.38H286.712L295.559 185.677L295.423 185.791C298.016 170.984 303.133 142.635 309.07 110.082L309.366 110.435H297.208L297.493 110.185C293.615 131.518 290.18 150.38 287.701 163.945C286.45 170.711 285.427 176.166 284.744 179.948L283.925 184.287C283.834 184.766 283.766 185.142 283.709 185.426L283.618 185.722Z" fill="#263238"/>
<path d="M263.921 185.723C263.93 185.531 263.953 185.341 263.989 185.153C264.069 184.709 264.16 184.151 264.274 183.445C264.535 181.873 264.911 179.686 265.411 176.964C266.4 171.326 267.776 163.501 269.357 154.457V154.218H282.151L282.083 154.571C279.729 166.872 277.614 177.943 276.112 185.768V185.939H275.953L267.083 185.825L264.683 185.723C264.422 185.739 264.16 185.739 263.898 185.723H264.763H267.162L275.896 185.609L275.692 185.768C277.147 177.943 279.206 166.849 281.48 154.537L281.776 154.89H269.596L269.869 154.662C268.186 163.603 266.742 171.337 265.684 176.907C265.161 179.64 264.729 181.85 264.422 183.433C264.274 184.151 264.16 184.743 264.069 185.187C264.03 185.368 263.981 185.547 263.921 185.723V185.723Z" fill="#263238"/>
<path d="M244.213 185.723C244.213 185.723 244.213 185.643 244.213 185.483C244.213 185.324 244.213 185.039 244.315 184.743C244.429 184.048 244.577 183.091 244.77 181.861C245.191 179.299 245.782 175.631 246.521 171.075C248.068 161.804 250.206 148.91 252.651 134.229V133.99H265.456L265.388 134.343C261.635 155.562 258.326 174.321 256.29 185.757V185.905H256.154L247.26 185.802H244.929C244.675 185.819 244.421 185.819 244.167 185.802H244.383H244.997H247.363L256.154 185.711L255.983 185.848L264.831 134.388L265.127 134.741H252.992L253.277 134.502C250.74 149.081 248.511 161.838 246.908 171.075C246.089 175.631 245.441 179.333 244.975 181.918C244.747 183.16 244.577 184.196 244.44 184.846L244.292 185.62L244.213 185.723Z" fill="#263238"/>
<path d="M224.538 185.723C224.523 185.613 224.523 185.502 224.538 185.392C224.538 185.142 224.629 184.811 224.697 184.39C224.857 183.467 225.073 182.112 225.357 180.472C225.937 177.055 226.79 172.055 227.836 165.881C229.997 153.409 233.011 136.051 236.422 116.404V116.164H249.228L249.171 116.518C243.871 146.04 239.186 171.85 236.604 185.757V185.882H236.479L227.552 185.791H225.277H224.732H225.334H227.666L236.502 185.7L236.354 185.825C238.765 171.884 243.337 146.051 248.637 116.54L248.921 116.882H236.741L237.025 116.643C233.534 136.188 230.441 153.444 228.223 165.847C227.086 172.043 226.187 177.021 225.55 180.483C225.243 182.192 224.993 183.513 224.823 184.458C224.732 184.891 224.675 185.233 224.618 185.495C224.561 185.757 224.538 185.723 224.538 185.723Z" fill="#263238"/>
<path d="M215.974 94.6831C215.977 94.9696 215.894 95.2504 215.737 95.4898C215.579 95.7292 215.355 95.9163 215.091 96.0276C214.827 96.1388 214.536 96.1691 214.256 96.1145C213.975 96.06 213.716 95.9232 213.513 95.7213C213.31 95.5195 213.171 95.2618 213.115 94.9809C213.058 94.7 213.086 94.4085 213.195 94.1436C213.304 93.8786 213.489 93.652 213.727 93.4925C213.965 93.3331 214.244 93.2479 214.53 93.2479C214.911 93.2479 215.277 93.3988 215.547 93.6676C215.818 93.9364 215.971 94.3014 215.974 94.6831V94.6831Z" fill="#263238"/>
<path d="M221.593 96.1182C222.384 96.1182 223.025 95.4757 223.025 94.6831C223.025 93.8905 222.384 93.2479 221.593 93.2479C220.801 93.2479 220.16 93.8905 220.16 94.6831C220.16 95.4757 220.801 96.1182 221.593 96.1182Z" fill="#263238"/>
<path d="M230.088 94.6831C230.09 94.9701 230.007 95.2513 229.849 95.491C229.691 95.7306 229.466 95.9177 229.201 96.0286C228.937 96.1395 228.646 96.1691 228.365 96.1137C228.083 96.0582 227.825 95.9202 227.622 95.7172C227.42 95.5143 227.282 95.2555 227.227 94.9738C227.171 94.6922 227.201 94.4004 227.312 94.1356C227.422 93.8708 227.609 93.645 227.848 93.487C228.088 93.3289 228.368 93.2457 228.655 93.2479C229.034 93.2509 229.397 93.4031 229.665 93.6716C229.933 93.94 230.085 94.3034 230.088 94.6831Z" fill="#263238"/>
<path d="M204.841 185.723C204.841 185.723 204.841 185.426 204.966 184.846C205.091 184.265 205.205 183.353 205.387 182.26C205.785 179.982 206.342 176.645 207.036 172.556C208.492 164.196 210.505 152.578 212.813 139.32V139.081H225.619L225.55 139.434C222.036 158.41 218.909 175.244 216.964 185.768V185.916H216.828L207.923 185.814H205.649C205.391 185.83 205.133 185.83 204.875 185.814H205.103H205.717H208.082L216.873 185.711L216.691 185.859L225.05 139.491L225.334 139.833H213.098L213.382 139.593C210.982 152.749 208.833 164.275 207.377 172.556C206.604 176.668 205.99 179.982 205.546 182.306C205.341 183.445 205.171 184.31 205.046 184.948L204.909 185.643C204.888 185.67 204.865 185.697 204.841 185.723Z" fill="#263238"/>
<path d="M337.774 139.377H272.86L276.567 117.554H341.936L337.774 139.377Z" fill="#EE4248"/>
<path d="M272.86 139.377L271.598 146.997C271.598 146.997 280.127 139.081 279.99 139.081H272.917" fill="#EE4248"/>
<path d="M332.145 125.139C332.145 125.298 321.329 125.435 308.001 125.435C294.672 125.435 283.846 125.298 283.846 125.139C283.846 124.98 294.661 124.844 308.001 124.844C321.341 124.844 332.145 124.98 332.145 125.139Z" fill="#FAFAFA"/>
<path d="M331.508 130.413C331.508 130.572 320.693 130.708 307.364 130.708C294.035 130.708 283.209 130.572 283.209 130.413C283.209 130.253 294.024 130.117 307.364 130.117C320.704 130.117 331.508 130.242 331.508 130.413Z" fill="#FAFAFA"/>
<path d="M437.681 240.793H252.742V348.871H437.681V240.793Z" fill="#263238"/>
<path d="M336.989 240.793H252.742V348.871H336.989V240.793Z" fill="#455A64"/>
<path d="M328.369 277.502C328.369 277.502 328.369 277.309 328.369 276.956C328.369 276.602 328.369 276.056 328.369 275.384C328.369 273.983 328.369 271.967 328.312 269.381C328.312 264.187 328.255 256.704 328.198 247.479L328.414 247.695L260.646 247.775C260.384 248.048 260.998 247.422 260.941 247.49V255.303C260.941 257.889 260.941 260.44 260.941 262.946C260.941 267.969 260.941 272.844 260.941 277.502L260.668 277.229L309.24 277.354L323.331 277.434H327.107H328.096H328.437C328.335 277.445 328.232 277.445 328.13 277.434H327.175H323.456L309.434 277.514L260.668 277.65H260.384V277.366C260.384 272.707 260.384 267.832 260.384 262.809V247.49C260.316 247.49 260.941 246.92 260.68 247.182L328.369 247.228H328.585V247.433C328.585 256.716 328.494 264.233 328.471 269.472C328.471 272.035 328.471 274.028 328.414 275.418C328.414 276.067 328.414 276.557 328.414 276.956C328.412 277.139 328.397 277.321 328.369 277.502V277.502Z" fill="#263238"/>
<path d="M297.401 262.49C297.401 262.49 297.333 262.24 297.196 261.818C297.006 261.236 296.636 260.729 296.139 260.372C295.78 260.112 295.363 259.945 294.924 259.888C294.485 259.83 294.039 259.883 293.626 260.042C293.126 260.228 292.695 260.563 292.391 261.002C292.087 261.441 291.924 261.962 291.924 262.496C291.924 263.03 292.087 263.551 292.391 263.99C292.695 264.429 293.126 264.764 293.626 264.951C294.04 265.103 294.485 265.153 294.923 265.095C295.361 265.038 295.778 264.875 296.139 264.62C296.636 264.263 297.006 263.756 297.196 263.174C297.333 262.752 297.344 262.49 297.401 262.49C297.458 262.49 297.492 262.752 297.401 263.231C297.269 263.908 296.903 264.517 296.366 264.951C295.96 265.281 295.476 265.502 294.96 265.592C294.445 265.681 293.915 265.637 293.421 265.463C292.807 265.248 292.275 264.847 291.898 264.315C291.522 263.783 291.32 263.148 291.32 262.496C291.32 261.844 291.522 261.209 291.898 260.677C292.275 260.146 292.807 259.744 293.421 259.529C293.914 259.357 294.443 259.312 294.958 259.4C295.473 259.487 295.957 259.704 296.366 260.03C296.904 260.467 297.271 261.08 297.401 261.761C297.492 262.24 297.435 262.502 297.401 262.49Z" fill="#263238"/>
<path d="M328.369 310.556C328.369 310.556 328.369 310.362 328.369 310.009C328.369 309.656 328.369 309.098 328.369 308.426C328.369 307.025 328.369 305.009 328.312 302.435C328.312 297.23 328.255 289.758 328.198 280.532L328.414 280.748L260.646 280.828L260.942 280.532V288.334C260.942 290.92 260.942 293.459 260.942 295.977C260.942 301 260.942 305.863 260.942 310.533L260.669 310.248L309.24 310.385L323.331 310.465H327.107H328.096C328.21 310.455 328.324 310.455 328.437 310.465H328.13H327.175H323.456L309.434 310.544L260.669 310.681H260.384V310.396C260.384 305.726 260.384 300.863 260.384 295.84V280.555L260.68 280.259L328.449 280.338H328.665V280.555C328.665 289.838 328.574 297.355 328.551 302.583C328.551 305.146 328.551 307.139 328.494 308.54C328.494 309.189 328.494 309.679 328.494 310.066C328.462 310.232 328.421 310.395 328.369 310.556Z" fill="#263238"/>
<path d="M297.401 295.544C297.401 295.544 297.333 295.282 297.196 294.86C297.006 294.278 296.636 293.771 296.139 293.414C295.778 293.159 295.361 292.996 294.923 292.939C294.485 292.881 294.04 292.931 293.626 293.084C293.126 293.27 292.695 293.605 292.391 294.044C292.087 294.483 291.924 295.004 291.924 295.538C291.924 296.072 292.087 296.593 292.391 297.032C292.695 297.471 293.126 297.806 293.626 297.993C294.039 298.15 294.484 298.203 294.922 298.147C295.36 298.092 295.778 297.929 296.139 297.674C296.639 297.315 297.01 296.803 297.196 296.216C297.333 295.794 297.344 295.544 297.401 295.544C297.458 295.544 297.492 295.806 297.401 296.273C297.273 296.955 296.906 297.569 296.366 298.004C295.959 298.333 295.474 298.551 294.959 298.639C294.443 298.727 293.914 298.681 293.421 298.505C292.807 298.29 292.275 297.889 291.898 297.357C291.522 296.826 291.32 296.19 291.32 295.538C291.32 294.886 291.522 294.251 291.898 293.719C292.275 293.188 292.807 292.786 293.421 292.571C293.915 292.397 294.445 292.353 294.96 292.442C295.476 292.532 295.96 292.753 296.366 293.084C296.906 293.519 297.273 294.133 297.401 294.815C297.492 295.282 297.435 295.544 297.401 295.544Z" fill="#263238"/>
<path d="M328.369 343.598C328.369 343.598 328.369 343.404 328.369 343.051C328.369 342.698 328.369 342.151 328.369 341.479C328.369 340.078 328.369 338.062 328.312 335.477C328.312 330.283 328.255 322.8 328.198 313.574L328.414 313.79L260.646 313.87C260.384 314.144 260.998 313.517 260.941 313.585V321.399C260.941 323.984 260.941 326.536 260.941 329.041C260.941 334.064 260.941 338.939 260.941 343.598L260.668 343.324L309.24 343.45L323.331 343.529H327.107H328.096H328.437C328.335 343.54 328.232 343.54 328.13 343.529H327.175H323.456L309.434 343.598L260.668 343.734H260.384V343.45C260.384 338.791 260.384 333.916 260.384 328.893V313.585C260.316 313.642 260.941 313.016 260.68 313.278L328.448 313.369H328.665V313.574C328.665 322.857 328.574 330.386 328.551 335.613C328.551 338.176 328.551 340.169 328.494 341.559C328.494 342.22 328.494 342.698 328.494 343.097C328.464 343.266 328.422 343.434 328.369 343.598V343.598Z" fill="#263238"/>
<path d="M297.401 328.586C297.401 328.586 297.333 328.335 297.196 327.914C297.006 327.331 296.636 326.825 296.139 326.467C295.779 326.21 295.362 326.045 294.923 325.988C294.485 325.93 294.04 325.982 293.626 326.137C293.126 326.324 292.695 326.659 292.391 327.098C292.087 327.536 291.924 328.058 291.924 328.592C291.924 329.126 292.087 329.647 292.391 330.086C292.695 330.524 293.126 330.86 293.626 331.046C294.04 331.202 294.485 331.253 294.923 331.195C295.362 331.138 295.779 330.973 296.139 330.716C296.636 330.359 297.006 329.852 297.196 329.269C297.333 328.848 297.344 328.586 297.401 328.586C297.458 328.586 297.492 328.848 297.401 329.326C297.268 330.007 296.902 330.619 296.366 331.058C295.957 331.383 295.473 331.6 294.958 331.688C294.443 331.775 293.914 331.731 293.421 331.559C292.807 331.343 292.275 330.942 291.898 330.411C291.522 329.879 291.32 329.243 291.32 328.592C291.32 327.94 291.522 327.304 291.898 326.773C292.275 326.241 292.807 325.84 293.421 325.625C293.914 325.452 294.443 325.408 294.958 325.495C295.473 325.583 295.957 325.8 296.366 326.126C296.904 326.562 297.271 327.176 297.401 327.857C297.492 328.335 297.435 328.597 297.401 328.586Z" fill="#263238"/>
<path d="M161.535 240.793H5.97052V348.871H161.535V240.793Z" fill="#263238"/>
<path d="M444.38 233.252H0V243.526H444.38V233.252Z" fill="#263238"/>
<path d="M19.754 243.526H5.97052V348.871H19.754V243.526Z" fill="#455A64"/>
<path d="M178.741 70.6845C178.65 70.2524 178.585 69.8149 178.548 69.3747C178.382 68.204 177.997 67.0754 177.411 66.0488C177.031 65.3614 176.452 64.8054 175.75 64.4543C175.355 64.2841 174.918 64.2354 174.494 64.3145C174.071 64.3936 173.681 64.5969 173.373 64.8985C172.056 66.5362 171.338 68.5759 171.338 70.6788C171.338 72.7818 172.056 74.8215 173.373 76.4592C173.68 76.7627 174.069 76.9681 174.493 77.0492C174.916 77.1303 175.354 77.0836 175.75 76.9148C176.45 76.556 177.028 75.9971 177.411 75.3088C177.997 74.2823 178.382 73.1537 178.548 71.983C178.584 71.5464 178.649 71.1127 178.741 70.6845C178.815 71.1257 178.815 71.576 178.741 72.0171C178.665 73.2438 178.328 74.44 177.752 75.5252C177.341 76.3078 176.702 76.9472 175.921 77.359C175.458 77.5812 174.938 77.6567 174.431 77.5754C173.902 77.4715 173.408 77.2322 172.998 76.8806C171.53 75.1509 170.724 72.9547 170.724 70.6845C170.724 68.4144 171.53 66.2182 172.998 64.4884C173.404 64.1292 173.899 63.8854 174.431 63.7823C174.938 63.7066 175.456 63.7819 175.921 63.9987C176.702 64.4105 177.341 65.0499 177.752 65.8324C178.329 66.9211 178.667 68.1214 178.741 69.3519C178.814 69.7931 178.814 70.2433 178.741 70.6845V70.6845Z" fill="#263238"/>
<path d="M129.646 48.4173L126.235 116.666L155.507 119.422L157.122 102.85C157.122 102.85 167.357 105.401 170.542 95.8676C172.532 89.774 174.306 42.0617 174.306 42.0617L129.646 48.4173Z" fill="#FFBE9D"/>
<path d="M180.527 49.1007C178.036 55.0348 168.643 60.1261 168.643 60.1261L167.107 75.2405C165.71 75.144 164.308 75.144 162.911 75.2405C163.661 68.1446 154.552 69.5456 153.619 74.3635C152.732 79.0106 158.021 82.12 158.021 82.12C154.37 87.7238 152.892 90.6852 147.706 95.936C142.111 101.631 139.097 102.086 133.308 101.916L126.928 101.62C126.928 101.62 124.654 96.1637 123.005 83.2818C122.197 77.0857 117.319 68.9647 118.74 58.8846C122.652 30.2618 154.279 35.3417 154.279 35.3417C166.152 26.0931 186.395 35.1481 180.527 49.1007Z" fill="#263238"/>
<path d="M178.741 70.7643C176.582 71.181 174.389 71.3946 172.191 71.4021C170.004 71.5965 167.804 71.5965 165.617 71.4021C167.773 70.9922 169.962 70.7825 172.157 70.7757C174.347 70.5808 176.55 70.577 178.741 70.7643Z" fill="#263238"/>
<path d="M271.996 150.938L261.362 157.532L257.462 166.644V158.671C257.462 158.671 260.35 155.255 262.716 152.76C265.081 150.266 263.387 148.534 262.716 147.68C262.045 146.826 251.866 158.671 251.866 158.671V165.505C247.124 159.662 244.929 161.667 244.201 162.726C243.473 163.786 251.866 171.713 251.866 171.713V174.128L210.163 196.588L199.189 169.253L176.774 181.041L190.159 213.491C191.082 215.736 192.476 217.756 194.248 219.413C196.019 221.071 198.125 222.327 200.424 223.098C202.723 223.868 205.16 224.134 207.57 223.878C209.981 223.621 212.308 222.849 214.394 221.612L263.466 192.556L266.73 187.101C267.863 185.22 268.53 183.096 268.675 180.905L270.369 156.359C273.349 154.491 271.996 150.938 271.996 150.938Z" fill="#FFBE9D"/>
<path d="M210.368 196.623C209.377 200.466 207.998 204.199 206.251 207.762C207.256 203.923 208.634 200.192 210.368 196.623V196.623Z" fill="#EB996E"/>
<path d="M270.369 156.359C269.741 156.683 269.096 156.972 268.436 157.225C267.683 157.582 267.012 158.09 266.462 158.717C265.912 159.343 265.497 160.076 265.24 160.87C264.39 163.163 263.356 165.384 262.147 167.51C262.814 165.168 263.665 162.883 264.694 160.676C265.027 159.744 265.554 158.894 266.241 158.182C266.83 157.633 267.512 157.194 268.254 156.883C268.91 156.549 269.634 156.37 270.369 156.359V156.359Z" fill="#EB996E"/>
<path d="M270.21 160.243C270.025 160.268 269.849 160.334 269.693 160.437C269.538 160.539 269.407 160.676 269.311 160.836C268.982 161.473 268.561 162.476 268.174 163.546C267.747 164.902 267.246 166.232 266.673 167.533C266.675 166.079 266.997 164.644 267.617 163.33C267.985 162.371 268.453 161.455 269.016 160.596C269.119 160.454 269.251 160.335 269.404 160.248C269.558 160.162 269.728 160.11 269.903 160.095C270.119 160.095 270.221 160.209 270.21 160.243Z" fill="#EB996E"/>
<path d="M170.075 176.884L174.841 193.046L205.08 179.378C203.943 175.961 198.984 160.915 189.42 136.997C186.801 130.438 182.541 124.665 177.05 120.233C171.559 115.801 165.021 112.858 158.066 111.688C148.172 110.037 137.402 108.75 129.112 108.852C120.881 108.929 112.926 111.832 106.575 117.077C100.225 122.322 95.8638 129.591 94.221 137.669C91.6622 150.368 96.143 158.763 93.2544 186.554L92.3332 256.454L173.078 259.426L170.075 176.884Z" fill="#EE4248"/>
<path d="M97.0073 185.814C97.0073 185.814 85.7826 186.474 81.3701 177.966C81.3701 177.966 93.4591 133.204 97.6782 127.93L97.0073 185.814Z" fill="#EE4248"/>
<path d="M190.944 141.507C190.655 141.731 190.333 141.907 189.989 142.031C189 142.39 187.959 142.587 186.907 142.612C185.254 142.603 183.608 142.393 182.005 141.985C180.14 141.564 178.059 140.937 175.728 140.55C174.513 140.403 173.289 140.339 172.066 140.357C170.742 140.462 169.429 140.679 168.142 141.006C165.287 141.783 162.545 142.932 159.988 144.423C157.225 145.926 154.416 147.703 151.425 149.457C148.355 151.364 145.068 152.894 141.633 154.013C138.103 155.108 134.334 155.168 130.772 154.184C127.542 153.137 124.531 151.504 121.89 149.366C119.354 147.395 117.148 145.323 115.067 143.432C113.169 141.66 111.155 140.016 109.039 138.511C106.027 136.257 102.516 134.764 98.8041 134.16C97.4329 134.083 96.0585 134.083 94.6873 134.16C95.0227 134.024 95.3744 133.932 95.7336 133.887C96.7636 133.723 97.8086 133.673 98.8496 133.739C102.683 134.185 106.339 135.604 109.472 137.862C111.656 139.339 113.731 140.972 115.681 142.748C117.796 144.616 120.025 146.644 122.504 148.535C125.053 150.557 127.947 152.1 131.045 153.09C134.406 153.997 137.956 153.93 141.28 152.897C144.621 151.803 147.823 150.324 150.822 148.489C153.79 146.769 156.622 144.992 159.442 143.489C162.095 141.979 164.936 140.83 167.892 140.072C169.244 139.748 170.621 139.542 172.009 139.457C173.291 139.47 174.572 139.569 175.841 139.753C178.252 140.208 180.311 140.892 182.142 141.37C183.687 141.816 185.278 142.084 186.884 142.168C188.263 142.16 189.633 141.937 190.944 141.507V141.507Z" fill="#263238"/>
<path d="M170.61 197.283C169.068 196.363 167.367 195.745 165.595 195.461C163.665 195.233 161.71 195.34 159.818 195.78C157.657 196.213 155.325 196.998 152.767 197.636C148.376 198.767 143.778 198.829 139.358 197.819C135.947 197.021 134.116 195.939 134.173 195.825C134.229 195.711 136.208 196.429 139.529 196.964C143.835 197.698 148.247 197.524 152.482 196.452C154.973 195.825 157.35 195.062 159.613 194.664C161.63 194.255 163.706 194.232 165.731 194.595C167.103 194.839 168.406 195.375 169.552 196.167C170.348 196.794 170.667 197.238 170.61 197.283Z" fill="#263238"/>
<path d="M171.429 239.016C171.429 239.016 171.122 239.528 170.36 240.246C169.259 241.254 168.027 242.109 166.698 242.786C164.703 243.823 162.497 244.384 160.25 244.426C157.507 244.351 154.804 243.747 152.289 242.649C149.639 241.613 147.217 240.451 144.931 239.802C142.911 239.184 140.795 238.937 138.687 239.073C137.279 239.158 135.906 239.546 134.662 240.212C133.775 240.702 133.365 241.1 133.286 241.02C133.206 240.941 133.558 240.462 134.423 239.881C135.656 238.987 137.096 238.422 138.608 238.241C140.826 237.982 143.074 238.156 145.227 238.754C147.778 239.548 150.284 240.483 152.732 241.556C155.104 242.595 157.642 243.201 160.227 243.344C162.326 243.353 164.401 242.906 166.311 242.034C169.666 240.519 171.315 238.845 171.429 239.016Z" fill="#263238"/>
<g opacity="0.3">
<path opacity="0.3" d="M83.8607 186.599C94.4371 188.764 105.298 186.6 116.068 185.939C122.607 185.552 129.851 184.8 135.014 188.866C139.108 192.055 140.7 197.42 141.94 202.477C146.489 221.771 147.274 239.004 148.286 258.789L95.9724 257.65L83.8607 186.599Z" fill="black"/>
</g>
<path opacity="0.3" d="M97.6777 150.277L99.9405 182.943H93.0497L97.6777 150.277Z" fill="black"/>
<path d="M112.371 256.408L216.202 260.087C224.305 260.372 231.972 263.83 237.557 269.717C243.141 275.604 246.196 283.45 246.066 291.569L245.157 350.58H207.081L204.625 299.701L112.371 297.264V256.408Z" fill="#263238"/>
<path d="M147.194 310.362H136.982V347.801H147.194V310.362Z" fill="#455A64"/>
<path d="M51.2899 191.417V281.625C51.2929 287.306 53.548 292.752 57.5594 296.767C61.5708 300.783 67.0101 303.038 72.6815 303.038H132.66V191.417C132.657 188.885 131.65 186.457 129.861 184.668C128.072 182.878 125.647 181.873 123.118 181.873H60.8201C58.2925 181.873 55.8685 182.878 54.0812 184.668C52.294 186.458 51.2899 188.886 51.2899 191.417V191.417Z" fill="#455A64"/>
<path d="M213.382 310.362H67.3137C67.3318 306.145 69.0172 302.107 72.0011 299.131C74.985 296.155 79.0244 294.485 83.2352 294.485H197.585C201.79 294.485 205.822 296.157 208.795 299.135C211.768 302.113 213.439 306.151 213.439 310.362H213.382Z" fill="#455A64"/>
<path d="M132.66 292.377C132.726 293.269 132.649 294.165 132.433 295.031C131.943 297.062 130.875 298.907 129.359 300.343C127.843 301.778 125.944 302.742 123.892 303.118C122.963 303.269 122.023 303.334 121.083 303.312H118.137H105.014H81.1313L73.9098 303.221H71.9423C71.7129 303.228 71.4835 303.205 71.26 303.152C71.4856 303.116 71.7138 303.097 71.9423 303.095L73.9098 303.038L81.1313 302.936L105.014 302.822H121.083C121.996 302.857 122.91 302.804 123.812 302.663C125.409 302.386 126.917 301.734 128.213 300.76C130.137 299.337 131.526 297.307 132.16 294.997C132.637 293.334 132.58 292.366 132.66 292.377Z" fill="#263238"/>
<path d="M151.038 310.67C148.065 310.97 145.074 311.069 142.088 310.966C139.097 311.069 136.103 310.97 133.126 310.67C136.104 310.376 139.097 310.277 142.088 310.374C145.074 310.277 148.064 310.376 151.038 310.67V310.67Z" fill="#263238"/>
<path d="M195.482 303.836C195.34 303.47 195.249 303.087 195.209 302.697C195.061 301.956 194.867 300.886 194.64 299.496C194.174 296.706 193.503 292.662 192.775 287.696C192.365 285.213 192.036 282.445 191.49 279.564C191.342 278.846 191.205 278.117 191.058 277.366C190.91 276.614 190.626 275.908 190.409 275.156C190.296 274.791 190.193 274.404 190.08 274.017C189.966 273.63 189.795 273.277 189.647 272.878C189.34 272.126 189.067 271.363 188.738 270.6C187.294 267.481 185.468 264.554 183.302 261.887C180.936 259.053 178.184 256.569 175.125 254.506C172.08 252.419 168.736 250.806 165.208 249.722C161.934 248.681 158.531 248.099 155.098 247.991C148.479 247.843 142.452 247.877 137.425 247.809C132.398 247.74 128.327 247.683 125.507 247.615C124.097 247.615 123.005 247.547 122.254 247.501C121.872 247.513 121.489 247.475 121.117 247.387C121.488 247.292 121.871 247.249 122.254 247.262L125.507 247.148C128.316 247.08 132.398 247.023 137.425 246.966C142.452 246.909 148.445 246.806 155.132 246.898C158.672 246.973 162.183 247.552 165.561 248.617C169.207 249.71 172.66 251.367 175.796 253.527C178.955 255.644 181.79 258.211 184.211 261.146C186.428 263.905 188.289 266.932 189.75 270.156C190.08 270.93 190.353 271.728 190.66 272.491C190.796 272.878 190.944 273.254 191.092 273.63C191.24 274.006 191.308 274.404 191.422 274.769C191.638 275.543 191.842 276.295 192.047 277.047C192.252 277.798 192.331 278.561 192.468 279.325C192.98 282.275 193.253 285.02 193.605 287.503C194.253 292.503 194.742 296.558 195.095 299.359C195.254 300.76 195.379 301.854 195.447 302.594C195.521 303.004 195.532 303.422 195.482 303.836V303.836Z" fill="#455A64"/>
<path d="M11.1563 194.675C11.1563 194.675 9.31398 199.835 12.8394 203.57H20.1747C20.1747 203.57 19.5265 195.233 11.1563 194.675Z" fill="#EE4248"/>
<path opacity="0.4" d="M11.1563 194.675C11.1563 194.675 9.31398 199.835 12.8394 203.57H20.1747C20.1747 203.57 19.5265 195.233 11.1563 194.675Z" fill="black"/>
<path d="M23.6547 184.048C23.3477 183.684 17.0701 193.525 20.5955 203.57H27.51C27.51 203.57 30.2167 191.884 23.6547 184.048Z" fill="#EE4248"/>
<path d="M35.9028 194.675C33.6425 194.827 31.5227 195.827 29.9668 197.476C28.4109 199.125 27.5335 201.302 27.5099 203.57H34.413C34.413 203.57 37.4381 199.311 35.9028 194.675Z" fill="#EE4248"/>
<path d="M12.2708 203.183C9.88608 204.898 8.0365 207.255 6.93725 209.981C5.83801 212.707 5.53428 215.69 6.06142 218.582C7.83552 228.833 18.6394 233.253 18.6394 233.253H30.6146C30.6146 233.253 42.8059 227.865 42.5102 216.783C42.2145 205.7 34.9589 203.343 34.9589 203.343L12.2708 203.183Z" fill="#455A64"/>
<path d="M42.4648 215.541C42.1936 215.084 41.8607 214.666 41.4754 214.3C40.9185 213.855 40.2788 213.525 39.5936 213.329C38.9083 213.134 38.1911 213.076 37.4836 213.161C35.3657 213.563 33.3645 214.434 31.6268 215.712C30.523 216.419 29.3538 217.018 28.1354 217.5C26.7911 218.012 25.3351 218.158 23.9162 217.922C20.9935 217.42 18.6622 215.849 16.4786 214.801C14.6207 213.715 12.4852 213.2 10.3375 213.32C8.90168 213.469 7.57232 214.147 6.60733 215.222C6.28487 215.646 6.01026 216.105 5.78851 216.589C5.79612 216.446 5.82289 216.304 5.86812 216.168C5.98598 215.758 6.17458 215.373 6.42537 215.029C7.37898 213.831 8.76269 213.054 10.2806 212.865C12.5386 212.666 14.8027 213.171 16.763 214.311C19.0375 215.359 21.312 216.874 24.0527 217.329C25.3744 217.557 26.7327 217.427 27.9876 216.954C29.1767 216.49 30.3191 215.914 31.3993 215.234C33.2129 213.944 35.2988 213.091 37.495 212.739C38.2525 212.665 39.0172 212.75 39.7399 212.99C40.4626 213.229 41.1273 213.617 41.6914 214.129C41.9849 214.418 42.2238 214.757 42.3965 215.131C42.4534 215.393 42.4875 215.53 42.4648 215.541Z" fill="#263238"/>
<path d="M42.6353 218.218C42.3625 217.768 42.0339 217.355 41.6573 216.988C41.1089 216.54 40.4753 216.208 39.7951 216.012C39.1148 215.816 38.402 215.761 37.6997 215.849C35.6051 216.252 33.6272 217.12 31.9111 218.389C30.8359 219.1 29.6931 219.703 28.4993 220.188C27.1673 220.702 25.7218 220.848 24.3143 220.61C21.4143 220.109 19.1057 218.537 16.9449 217.489C15.1156 216.405 13.0057 215.889 10.8834 216.008C9.45682 216.164 8.13928 216.846 7.18731 217.922C6.86973 218.341 6.60253 218.796 6.39124 219.277C6.39124 219.277 6.39123 219.129 6.45947 218.856C6.58251 218.468 6.7668 218.103 7.00535 217.774C7.94365 216.579 9.31065 215.798 10.8151 215.598C13.0351 215.396 15.2631 215.885 17.1951 216.999C19.4014 218.047 21.7441 219.562 24.4052 220.017C25.7119 220.245 27.0556 220.115 28.2946 219.642C29.4662 219.179 30.5898 218.603 31.6495 217.922C33.4418 216.632 35.5093 215.778 37.6883 215.427C38.4297 215.361 39.1768 215.45 39.8819 215.689C40.5869 215.928 41.2342 216.313 41.7824 216.817C42.0707 217.103 42.3056 217.439 42.4761 217.808C42.5515 217.935 42.6053 218.073 42.6353 218.218Z" fill="#263238"/>
<path d="M11.5542 218.15C11.5542 218.081 11.8726 217.876 12.2934 218.218C12.4205 218.328 12.5114 218.474 12.554 218.636C12.5967 218.799 12.589 218.971 12.5322 219.129C12.4622 219.324 12.331 219.491 12.1582 219.605C11.9855 219.718 11.7805 219.773 11.5741 219.76C11.3677 219.747 11.1711 219.668 11.0137 219.533C10.8564 219.399 10.7468 219.217 10.7014 219.015C10.6614 218.859 10.6647 218.695 10.7107 218.54C10.7568 218.386 10.844 218.247 10.963 218.138C11.3723 217.796 11.7248 217.956 11.7021 218.024C11.6793 218.093 11.4519 218.149 11.2813 218.423C11.2445 218.491 11.2252 218.567 11.2252 218.645C11.2252 218.723 11.2445 218.799 11.2813 218.867C11.3147 218.947 11.3676 219.017 11.4352 219.071C11.5028 219.124 11.5828 219.16 11.668 219.175C11.7519 219.172 11.8337 219.147 11.9054 219.103C11.9771 219.059 12.0363 218.997 12.0773 218.924C12.1154 218.86 12.1355 218.788 12.1355 218.713C12.1355 218.639 12.1154 218.566 12.0773 218.503C11.8271 218.241 11.5656 218.229 11.5542 218.15Z" fill="#263238"/>
<path d="M25.1217 213.821C25.1217 213.753 25.4401 213.537 25.8722 213.89C25.9948 214.003 26.0817 214.149 26.1221 214.311C26.1625 214.473 26.1547 214.643 26.0996 214.801C26.0278 214.994 25.8968 215.16 25.7253 215.275C25.5537 215.39 25.3504 215.447 25.1444 215.439C24.9389 215.419 24.7444 215.336 24.5876 215.202C24.4309 215.067 24.3195 214.887 24.2688 214.687C24.2276 214.53 24.2313 214.364 24.2796 214.209C24.3278 214.054 24.4187 213.916 24.5417 213.81C24.9511 213.468 25.3036 213.628 25.2695 213.696C25.2354 213.764 25.0193 213.821 24.8488 214.095C24.8147 214.164 24.7969 214.24 24.7969 214.317C24.7969 214.394 24.8147 214.47 24.8488 214.539C24.8821 214.619 24.935 214.689 25.0026 214.742C25.0702 214.796 25.1503 214.832 25.2354 214.846C25.3196 214.845 25.4019 214.82 25.4738 214.776C25.5456 214.732 25.6046 214.67 25.6447 214.596C25.684 214.533 25.7049 214.46 25.7049 214.385C25.7049 214.311 25.684 214.238 25.6447 214.174C25.3946 213.912 25.133 213.901 25.1217 213.821Z" fill="#263238"/>
<path d="M38.2796 218.343C38.2796 218.275 38.598 218.07 39.0301 218.411C39.1527 218.525 39.2396 218.671 39.28 218.833C39.3204 218.995 39.3126 219.165 39.2575 219.323C39.1857 219.516 39.0547 219.682 38.8832 219.797C38.7116 219.911 38.5083 219.969 38.3023 219.961C38.0983 219.942 37.9049 219.861 37.7483 219.728C37.5917 219.596 37.4795 219.419 37.4268 219.22C37.3859 219.061 37.3898 218.894 37.438 218.737C37.4861 218.581 37.5767 218.44 37.6997 218.332C38.109 217.99 38.4615 218.15 38.4274 218.218C38.3933 218.286 38.1772 218.355 38.0067 218.617C37.9588 218.684 37.9293 218.763 37.9209 218.845C37.9125 218.927 37.9255 219.01 37.9588 219.086C37.992 219.162 38.0442 219.228 38.1104 219.277C38.1766 219.326 38.2545 219.358 38.3364 219.368C38.4207 219.366 38.5029 219.342 38.5748 219.298C38.6467 219.254 38.7057 219.192 38.7458 219.118C38.7851 219.054 38.8059 218.981 38.8059 218.907C38.8059 218.832 38.7851 218.759 38.7458 218.696C38.5525 218.446 38.3023 218.423 38.2796 218.343Z" fill="#263238"/>
<path d="M384.458 192.727L388.358 233.253H408.078L412.798 192.727H384.458Z" fill="#455A64"/>
<path d="M384.458 187.488C383.244 189.006 382.59 190.896 382.604 192.841H414.652C414.808 191.865 414.72 190.865 414.397 189.931C414.073 188.997 413.524 188.158 412.798 187.488H384.458Z" fill="#263238"/>
<path d="M388.108 183.775L387.028 187.784L411.217 187.966L409.614 183.729L388.108 183.775Z" fill="#263238"/>
<path d="M384.094 202.876C384.094 203.251 386.368 223.309 386.368 223.309H410.467L412.741 202.91L384.094 202.876Z" fill="#EE4248"/>
</svg>
